<!-- Generator: Adobe Illustrator 15.0.2, SVG Export Plug-In . SVG Version: 6.00 Build 0)  -->
<!DOCTYPE svg PUBLIC "-//W3C//DTD SVG 1.1//EN" "http://www.w3.org/Graphics/SVG/1.1/DTD/svg11.dtd"[]>
<svg version="1.1" id="fishSVG" xmlns:dc="http://purl.org/dc/elements/1.1/" xmlns:rdf="http://www.w3.org/1999/02/22-rdf-syntax-ns#" xmlns:cc="http://creativecommons.org/ns#" xmlns:svg="http://www.w3.org/2000/svg" xmlns="http://www.w3.org/2000/svg" xmlns:xlink="http://www.w3.org/1999/xlink" x="0px" y="0px" width="53.292px" height="59.037px" viewBox="21.438 22.892 53.292 59.037" enable-background="new 21.438 22.892 53.292 59.037" xml:space="preserve">
<path fill="#BCC3C5" stroke="#797B7D" d="M22.271,31.612c-0.045-0.944,0-8.22,18.989-8.22c19.035,0,18.961,8.295,18.961,8.745  s-2.938,11.04-2.938,11.04l-31.23,0.854L22.271,31.612z" />
<path fill="#A1ABAE" stroke="#797B7D" d="M22.811,36.378c-0.043-0.909-0.447-7.688,18.203-7.603s18.289,7.675,18.289,8.106  s-2.826,10.616-2.826,10.616L26.446,48.32L22.811,36.378z" />
<path fill="#868E90" stroke="#797B7D" d="M23.666,38.601c-0.042-0.873-0.431-7.388,17.491-7.304  c17.92,0.083,17.573,7.374,17.573,7.79s-2.717,10.2-2.717,10.2l-28.854,0.79L23.666,38.601z" />
<path fill="#804A26" stroke="#4E3215" d="M23.471,39.281c-0.042-0.875,1.65-6.866,17.549-6.754  c16.86,0.12,17.596,6.822,17.596,7.239S55.893,49.99,55.893,49.99l-28.921,0.791L23.471,39.281z" />
<path fill="#4B2B16" stroke="#4E3215" d="M23.966,40.038c-0.041-0.849,1.6-6.655,17.011-6.545  c16.342,0.115,17.053,6.612,17.053,7.017s-2.639,9.911-2.639,9.911l-28.032,0.768L23.966,40.038z" />
<path fill="#E3EAED" stroke="#A9A9AA" d="M24.612,73.416c-0.526-1.229-3.104-39.374-2.609-41.759c0.262-1.263,0.63-1.891,0.63-1.891  s-0.811,8.101,18.718,8.55c19.859,0.458,18.271-8.279,18.271-8.279s0.78,0.569,0.899,2.37c0.078,1.167-2.16,37.771-2.969,40.47  c-0.811,2.699-2.611,8.459-17.281,8.551C25.601,81.517,24.882,74.047,24.612,73.416z" />
<path fill="#DBDFE1" stroke="#97989A" d="M31.676,80.302c-6.406-2.092-6.861-6.414-7.064-6.887  c-0.526-1.229-3.104-39.374-2.609-41.759c0.262-1.263,0.63-1.891,0.63-1.891s-0.456,4.557,7.556,7.024  C28.842,45.067,30.282,74.047,31.676,80.302z" />
<path fill="#B1B5B6" stroke="#797B7D" d="M27.898,78.41c-2.84-2.121-3.135-4.64-3.287-4.994c-0.526-1.229-3.104-39.374-2.609-41.759  c0.262-1.263,0.63-1.891,0.63-1.891s-0.251,2.508,2.892,4.812C24.612,40.747,26.681,69.547,27.898,78.41z" />
<path fill="#CAD2D7" stroke="#98999A" d="M51.983,37.378c8.576-2.183,7.638-7.342,7.638-7.342s0.78,0.569,0.899,2.37  c0.078,1.167-2.16,37.771-2.969,40.47c-0.574,1.908-1.641,5.348-7.402,7.229C51.43,73.506,52.6,46.687,51.983,37.378z" />
<path fill="#A9AFB1" stroke="#797B7D" d="M56.303,35.632c3.896-2.422,3.316-5.599,3.316-5.599s0.78,0.569,0.899,2.369  c0.078,1.168-2.16,37.771-2.969,40.471c-0.393,1.305-1.016,3.326-3.213,5.076C55.391,69.722,57.731,44.793,56.303,35.632z" />
<path fill="#B1BBC0" stroke="#797B7D" d="M59.11,47.047c-0.518-0.533-0.479-2.64-0.299-3.9c0.181-1.26,0.84-4.109,1.199-3.87  c0.359,0.24,0.121,0.511,0.781,0.511s3.328-2.011,6.959-1.351s7.266,5.08,6.33,9.09c-0.959,4.11-2.279,6.78-7.83,12.63  c-5.549,5.85-6.51,7.891-6.631,8.01c-0.119,0.121-1.979,2.701-2.431,2.19c-0.448-0.51-0.237-3.688,0.062-4.561  c0.301-0.869,0.6-2.551,1.438-2.881s0.75,0.69,2.881-1.709c2.13-2.4,9-9,9.722-13.261c0.705-4.181-1.562-6.06-4.353-6.239  c-2.971-0.191-4.889,0.75-5.188,2.43S60.131,48.096,59.11,47.047z" />
</svg>