<!DOCTYPE svg PUBLIC "-//W3C//DTD SVG 1.1//EN" "http://www.w3.org/Graphics/SVG/1.1/DTD/svg11.dtd"[]>
<svg version="1.1" id="fishSVG" xmlns="http://www.w3.org/2000/svg" xmlns:xlink="http://www.w3.org/1999/xlink" x="0px" y="0px" width="200px" height="200px"
	 viewBox="0 0 200 200" xml:space="preserve">

	<path fill="#3D5DA1" d="M118.9,140.1c-10.1-2.4-30.3-4.8-35.3-9.7c-3.6-3.4-5-24.2-5-24.2s5,7.3,22.7-2.4c0,0-10.1-2.4-7.6-12.1
		c1.9-7.4,2.5-50.9-27.8-50.9c-0.4,0-0.8,0-1.3,0.1c-0.4-0.1-0.8-0.1-1.3-0.1c-30.3,0-29.7,43.4-27.8,50.9
		c2.5,9.7-7.6,12.1-7.6,12.1c17.7,9.7,22.7,2.4,22.7,2.4s-1.5,20.8-5,24.2c-5,4.8-25.2,7.3-35.3,9.7c-10.1,2.4-5,33.9-5,33.9
		c20.4,4.1,40.1,5.4,57.4,5.4c0.6,0,1.3,0,1.9,0c0.6,0,1.3,0,1.9,0c17.3,0,37.1-1.3,57.4-5.4C123.9,174,129,142.5,118.9,140.1z"/>
	<path fill="#3D5DA1" d="M196,145.7c0-2.5,0-12.7-13.9-17.7c-13.9-5.1-23.2-15.2-27.8-20.3c-4.6-5.1-2.3-15.2-2.3-20.3
		s4.6-17.7,6.9-22.8c2.3-5.1-2.3-5.1-2.3-5.1c6.9-12.7,0-25.3,0-25.3c-8.8-9.6-15.1-10.6-22-10.2c-6.9-0.3-13.2,0.6-22,10.2
		c0,0-6.9,12.7,0,25.3c0,0-4.6,0-2.3,5.1s6.9,17.7,6.9,22.8s2.3,15.2-2.3,20.3c-3.9,4.3-11.2,12.2-21.7,17.6
		c0.1,0.1,0.1,0.2,0.2,0.2c5,4.8,25.2,7.3,35.3,9.7c9.4,2.2,7.4,29.5,6.8,33.5c0.1,0.3,0,0.6,0,0.8c0,0.1,0,0.3,0,0.4v3.7h4.8
		c0,0,41.7,0,46.3,0c4.6,0,6.9-2.5,9.3-5.1C198.3,165.9,196,148.2,196,145.7z"/>

</svg>
