<svg version="1.1" id="fishSVG" xmlns="http://www.w3.org/2000/svg" xmlns:xlink="http://www.w3.org/1999/xlink" x="0px" y="0px" width="179.97px" height="183.24px" viewBox="0 0 179.97 183.24" xml:space="preserve">

<defs><style></style></defs><title>Geyser updated</title><path fill="#676258" d="M147.56,193.21c-.44-.69-1.15-.64-1.82-.64-3.69,0-7.38.09-11.07,0-4.25-.13-8.43,1-12.68.58a30.69,30.69,0,0,0-6.06-.43c-2.36.23-4.75.21-7.1.46a4.24,4.24,0,0,1-3.73-1.46c-1.84-1.83-2.64-1.77-4.38.13-.43.47-1,.85-1.16,1.57a5.25,5.25,0,0,0,3.76-.24c.83-.42,1.68.12,2.53.18.46,0,.32.37.14.62a1.53,1.53,0,0,1-1.17.59,32.54,32.54,0,0,1-4.41.28c-.5,0-1.12,0-1.36-.42-.59-1-1.47-.81-2.35-.81-3.4,0-6.79.16-10.17.48a5.91,5.91,0,0,1-2.44-.13c-1.24-.43-2.29.38-3.45.51-2.58.27-5.15.13-7.73.15a1.21,1.21,0,0,1-1.14-.6c-.5-1-1.36-1-2.28-1-2.41,0-4.83,0-7.24.06-.13-.56.3-1,.44-1.57-1.77-.14-3.42.45-5.11.55a159.24,159.24,0,0,1-18.79.4c-2-.11-4.06-.47-6.09-.74a4,4,0,0,1-1-.36c-.51-.21-.95-.5-1-1.14a1.44,1.44,0,0,1,.85-1.37l2.25-1.13a4.68,4.68,0,0,0-2.71-.37c-3.77.15-7.53.38-11.3.51a31.44,31.44,0,0,1-6.13-.25,5.93,5.93,0,0,1-.84-.16c-.69-.21-1.59-.28-1.63-1.22a2,2,0,0,1,1.42-1.82,40.72,40.72,0,0,1,7.61-1.89c4.32-.93,8.6-2.07,13-2.8a1.76,1.76,0,0,0,1-.71,30.31,30.31,0,0,1,2.94-2.58c-.37.75-.91,1.67.26,2a3.66,3.66,0,0,0,1.66.33h0a7.12,7.12,0,0,1-2.75,1A60.73,60.73,0,0,0,24.88,182c-.39.1-.89.1-.84.68s.53.53.93.63c1.52.37,3-.13,4.49-.19,1.72-.06,3.43-.2,5.19-.31-.29.57-1,.89-.49,1.55a3.4,3.4,0,0,0,2.28,1.32.36.36,0,0,0,.37-.4c-.11-.8.56-.76,1.08-.91-.89-.53-.6-1.32-.5-1.92.14-.76.73-.08,1.1-.16a6.38,6.38,0,0,0,1.07-.24c1.63-.66,3.24-1.36,4.87-2a30.81,30.81,0,0,0,9.91-5.71c1.9-1.76,4-3.28,6.06-4.9l.16.15a3.46,3.46,0,0,1-1.19,1.38,15.84,15.84,0,0,0-3.08,3.93,12.47,12.47,0,0,1-5,4.94c-.8.42-1.59.84-2.37,1.29a8.44,8.44,0,0,0-3.46,3c-.38.7-.27,1.13.6,1.05,2-.18,4-.27,5.82-1.53a15,15,0,0,1,4.1-2.38h0c0,.42-.31.64-.53.93s-.31.73.27.75c2.1.08,4.18.11,5.78-1.67a16.33,16.33,0,0,1,4.51-3.34,4.3,4.3,0,0,0,2.3-2.4,7.53,7.53,0,0,1,2-3.17c2.23-2,4.21-4.22,6.48-6.14a13.94,13.94,0,0,0,4.69-7.82c.09-.38.08-.82.54-1-.5,3.37-1.34,6.56-4.3,8.72-3.43,2.5-4.37,6.27-5.08,10.24,2.94-2.3,5.8-4.68,9.55-5.5l.23.24c-.09.58-.56.89-.92,1.26a24.62,24.62,0,0,0-5.73,8.18c-.14.36-.6.73-.24,1.09s.79.12,1.18,0a7.91,7.91,0,0,0,4-2.52c2.55-3,4.68-6.28,7.54-9,2.08-2,2-4.89,2.53-7.5-1.06,1.31-1.73,2.89-3.27,3.73l-.16-.19a13.73,13.73,0,0,0,3.88-7.89c.35,5,.41,10-1.77,14.91A1.58,1.58,0,0,0,90.71,172c.43-1,.81-2,1.23-3.07,1.68-4.16,3.67-8.2,4.73-12.61.55-2.3.18-4.65.66-6.94a1.49,1.49,0,0,0,1.84-.53.67.67,0,0,0-.1-.9c-.55-.58-1.18-.37-1.8-.1l-.24.06s.06-.07,0-.1,0-.06-.06-.09v.19a.57.57,0,0,0-.29.61c-.07,0-.2,0-.21,0q-1.35,3.36-2.68,6.72c-.12.3-.19.59.26.61s.69.38.54.84a.74.74,0,0,1-.87.53c-.52-.09-.36-.52-.39-.88-.19-2.15,0-4.34-.67-6.44-.1-.35,0-.91-.71-.72a5.63,5.63,0,0,0-2.67,1.11c-.78.74-1.62,1.41-2.63,2.29l.46-2.28c-.6.19-.77.59-1,.88a20.92,20.92,0,0,0-4,6.22c-.26-.79.46-1.55.09-2.44a7.61,7.61,0,0,0-3.33,2.85c-1.06,1.6-2,3.31-3.08,4.87-1.24,1.71-1.78,3.94-3.55,5.21-2.08,1.51-3.81,3.45-6,4.79-1.78,1.08-3.13,2.74-5,3.67h0c0-.55.43-.77.73-1.07,1.37-1.41,2.77-2.79,4.13-4.21a31.57,31.57,0,0,0,6.4-8.62,15.11,15.11,0,0,1,5.41-6.21c1.08-.75,2.07-1.62,3.16-2.32,3.58-2.32,5.24-5.83,6.22-9.78.13-.52.48-1.06.14-1.64-.73-.06-1,.79-1.79.82.08-1,.81-1.78.81-2.76-1,0-1.67.8-2.58.84a8.2,8.2,0,0,1,3.24-3.65,3.2,3.2,0,0,1,2.72,0c1,.27,1.92.63,2.88.94-.6,2.71.93,3.68,3.26,4,.24,0,.47.1.71.15l.25.1c.32.38,1.14.1,1.18.87-.42,0-.71.2-.72.64a.43.43,0,0,0,.49.43c.51,0,1-.13.94-.81a1.8,1.8,0,0,0,1.31-.53,5.93,5.93,0,0,1,2.25-1.43c1.42-.59,2.85-1.17,4.25-1.83.53-.25.76.07,1,.33a4.75,4.75,0,0,0,2.19,1.36c0-1,0-1.86,0-2.76,0-.67-.06-1.4.62-1.86.73.77,1.45,1.56,2.21,2.3a7.41,7.41,0,0,0,4.42,1.93,2.47,2.47,0,0,1,2.18,1.69c2.93,7.2,7.33,13.5,12,19.63a27.72,27.72,0,0,0,10.45,8.53,115,115,0,0,0,13.8,5.94,20.38,20.38,0,0,0,4.56.64q8.88.69,17.78,1a29.83,29.83,0,0,1,7.29,1c.91.28,2,.55,2,1.68s-.91,1.59-1.76,2a16.67,16.67,0,0,1-4.8,1c-7,1-14.1,1.45-21.18,1.79-.85,0-1.7.17-2.71.28.52.24.93.4,1.3.6,1.71.9,1.78,2,.16,3.13-2,1.35-4.35,1.61-6.63,2.07C150.22,192.76,148.89,193,147.56,193.21Zm-30.5-35.35,0,0,0,0c-1.57-3.67-3.64-7.07-5.52-10.59a18.94,18.94,0,0,0,.9,5.67A8.09,8.09,0,0,0,117.06,157.86ZM100.93,145.8a41.67,41.67,0,0,1-.94,6.4,37.27,37.27,0,0,0-.32,7.34c.64-.23.62-.7.75-1,.48-1.3.86-2.64,1.41-3.91a5.91,5.91,0,0,0,.29-3.11c-.2-1.86-.78-3.68-.61-5.57.55,0,1.27.2,1.27-.66a1,1,0,0,0-1.15-1C100.69,144.36,100.68,145.06,100.93,145.8ZM77.68,192.32a7,7,0,0,1,4.5.14c.42.11,1,.33,1.29-.28s-.18-1-.59-1.25a12.65,12.65,0,0,1-2.54-2.47c-.4-.53-3.58-.94-4-.45a23.64,23.64,0,0,0-2.72,3.29c-.15.27-.22.57.14.73,1.23.51,2.6.21,3.84.64l.06-.35Zm25-32.33a4.63,4.63,0,0,0-.62.59,73.61,73.61,0,0,0-6.46,11.65,13.86,13.86,0,0,0-.88,9.22c.87,3,2.31,5.84,3.43,8.78.11.29.11.66.58.75a4.36,4.36,0,0,0,.57-2.06c.3-3.22.22-6.44.23-9.66A35.9,35.9,0,0,1,101.1,169,34.52,34.52,0,0,0,102.66,160Zm27.57,30.17c.27,0,.62.09.76-.24s-.08-.56-.25-.77a3.21,3.21,0,0,0-.74-.63c-.76-.49-1.57-.92-1.37-2.06.06-.32-.2-.5-.49-.62a4.59,4.59,0,0,0-4.84,1.32,14.46,14.46,0,0,1-1.53,2.06c-.4.38-.33,1.1.15,1,1.07-.19,2,.84,3,.24a4.8,4.8,0,0,1,5-.35A.63.63,0,0,0,130.23,190.16ZM74.5,185.47a7.71,7.71,0,0,0,0-1.09c-.06-.45.29-1.11-.32-1.3a2.1,2.1,0,0,0-1.9.16c-1,.77-2,1.57-3,2.4a1.19,1.19,0,0,0-.19,1.89,8.29,8.29,0,0,0,4.11,2.26c.46.14.51-.29.51-.63s-.18-1.25,0-1.29C75.1,187.35,74.26,186.19,74.5,185.47Zm23.18-22.92-.36-.09c-1.17,1.83-1.64,4-2.77,5.84-2.71,4.41-3.66,9.24-3.73,14.56C93.16,176,95.42,169.25,97.68,162.55Zm47,22.35v-.13c.56-.09,1.12-.16,1.67-.27.72-.14,1.53.23,2.14-.26s.05-1.47.27-2.21c.16-.54.25-1.24-.4-1.53a2,2,0,0,0-2.19.15c-.84.85-1.8,1.52-2.7,2.29a1.17,1.17,0,0,0-.05,2,9.84,9.84,0,0,0,2.83,1.9c.39.17.84.58,1.22.12s.16-.88.1-1.31c-.08-.59-.59-.43-1-.47Zm-39.15.83a68.65,68.65,0,0,0-.85-14.7A16.14,16.14,0,0,0,105.51,185.73Zm20.08-13.84c-.47-2.86-4.57-8.45-6.6-9,1.45,2.63,2.84,5.21,4.47,7.65A3.36,3.36,0,0,0,125.59,171.89Zm-64,15.33.75-.07c.52-.05,1.16,0,1.25-.69.07-.54.32-1.26-.19-1.61s-1.14.06-1.6.51a5.6,5.6,0,0,1-.49.36c-1,.73-1,1.36,0,2.13a2.29,2.29,0,0,0,1.67.63c.25,0,.22-.42.16-.64C62.92,187,62.13,187.62,61.63,187.22Zm54.43-43.05a1.48,1.48,0,0,0,1.16-1.23.7.7,0,0,0-.77-.77,1.13,1.13,0,0,0-1.13,1.18C115.3,143.86,115.61,144.06,116.06,144.17ZM88.18,140.3c.57-.15,1.1-.36,1.11-1.08a.73.73,0,0,0-.82-.73,1,1,0,0,0-1,1C87.4,140,87.66,140.28,88.18,140.3Zm17.36,2.63c-.08-.52-.46-.64-.87-.66s-.89.17-.9.74.23.82.72.76A1.14,1.14,0,0,0,105.54,142.93Z" transform="translate(-11.19 -11.6)"/><path fill="#7ec4e0" d="M98.06,143.8c0-.77-.86-.49-1.18-.87a15.73,15.73,0,0,0-.73-5.66,1.63,1.63,0,0,0-.38-.62.54.54,0,0,0-.76-.14.84.84,0,0,0-.32.47c-.07.32.1.67.41.63.58-.07.56.38.64.67a27.31,27.31,0,0,1,.89,4.55c-.24-.05-.47-.12-.71-.15-2.33-.34-3.86-1.31-3.26-4a5.94,5.94,0,0,0-1-4.51c-2.79-4.26-5.71-8.39-9.58-11.76a2,2,0,0,0-1.87-.69,1.8,1.8,0,0,1-2.27-1.18,2,2,0,0,1,.74-2.6,1.88,1.88,0,0,0,1.06-2.25,2.62,2.62,0,0,1,4.63-1.9,1.29,1.29,0,0,0,1.08.66.8.8,0,0,1,.54.24c1.32,1.92,3.27,1.1,5,1a1.84,1.84,0,0,0,1.56-1.89,109.25,109.25,0,0,0-.56-11.15c-.17-1.91-.18-3.83-.31-5.75-.35-5.39-1.26-10.7-2.12-16a170.36,170.36,0,0,0-3.62-17.76A133.25,133.25,0,0,0,80.13,47a12.91,12.91,0,0,0-2.08-3.29c-.08-.28.15-.27.27-.33.43-.2.8-.45.76-1,0-.2-.08-.41-.33-.46a1,1,0,0,0-1.18.44c-.39.67-.82.39-1.19.06a11.63,11.63,0,0,1-1.18-1.25c-.4-.47-.73-1.06-1.45-.4-.26.24-.57.07-.77-.14a.62.62,0,0,1,0-.88c.12-.15.58-.24.24-.51a1.79,1.79,0,0,0-1-.32c-.31,0-.33.36-.27.57.25,1-.29,1.51-.92,2l-.12-.1c.11-1.45-.38-2.39-1.44-2.76-.7-.24-1.17-.06-1.36.73-.42,1.72.76,2.77,2.57,2.26l.1.12a1.53,1.53,0,0,1-2.69.3,3,3,0,0,1-.87-2.35,2.54,2.54,0,0,0-.61-2.19,2.48,2.48,0,0,1-.43-1.38,2.07,2.07,0,0,0-.65-1.5,2.27,2.27,0,0,1-.6-2.28,4.5,4.5,0,0,0,0-2.57,2.51,2.51,0,0,1,2.5-3c.59,0,.64-.22.8-.61.74-1.77,2.25-2,3.5-.48.07.09.13.29.2.29a3.59,3.59,0,0,1,2.79,1.84c.38.56,1.18-.05,1.2-.78,0-1.26.59-1.74,1.84-1.64.7,0,1.57-1.58,1.45-2.27-.18-.94-.3-1.94.7-2.67.18.46-.09.77-.15,1.11-.15.86-.15,1.67,1,1.87.28.05.37.29.56.43C82.81,25,82.79,25,83.46,23.3A1.73,1.73,0,0,1,84.93,22a1.89,1.89,0,0,0,1.16-.63A1.36,1.36,0,0,1,87.66,21a1.41,1.41,0,0,0,.92.1,2.29,2.29,0,0,1,2.83,1.33c.48,1.05,1.3,1,2,.75a1.31,1.31,0,0,0,1-1.67c-.33-1.18.2-1.62,1.32-1.73a2,2,0,0,0,1.56-.89,1.91,1.91,0,0,1,2.19-1.06c.7.06,1.5.09,1.08-1.09a.7.7,0,0,1,.53-.85.62.62,0,0,1,.75.29c.21.34.27.83,0,1-1.06.68-.3,1.09.06,1.73.69,1.21.9,2.71,2.66,3.09.28.06.33,1.28,1,1.65a2.15,2.15,0,0,0,2.86-.59c.61-.78,1.15-1.26,2.21-.84a3.61,3.61,0,0,0,1.46,0,2.48,2.48,0,0,1,2.07.5,1.35,1.35,0,0,0,1,.26A1.68,1.68,0,0,1,117,24c.38.87.76.48,1.17.07.22-.22.29-.76.66-.63.82.3,1.65-.18,2.42.12.41.16.35.61.26,1-.39,1.72-.29,3.28,1.3,4.43a.93.93,0,0,1,.31.37,3.47,3.47,0,0,0,2.21,2.44c.63.19.64.95.45,1.61s-.34,1.1.3,1.51.91-.13,1.35-.4c1.55-1,3.4-.79,5.11-1.11,1-.2,1.57.92,1.54,2.34,0,.28-.38.65.3.83,2.24.57,2.9,2.32,1.68,4.33a2.79,2.79,0,0,0-.63,1.94c.12,1.08-1.09,1.85-1.35,2.73-.19.65.9,1.7.62,2.78a2.17,2.17,0,0,1-3.38,1.09c-.33-.25-.64-1.08-1.07,0-.14.38-.89.15-1.37.18-1,0-1.68.52-1.67,1.64l-.07.09c-.6-.19-1.2-.33-1.57.37a.67.67,0,0,0,.17.88,1.3,1.3,0,0,0,1.45.25c.6-.31.37-.8.18-1.25a.47.47,0,0,0,.1-.1.78.78,0,0,0,.92-.12c.46-.54,1-.44,1.54-.2a2,2,0,0,0-.82,1.14,8.47,8.47,0,0,1-3.21,4.59,10.66,10.66,0,0,0-2.57,3.42c-2.86,5.16-5.75,10.3-7.7,15.9A92.78,92.78,0,0,0,112.1,91c-1.12,6.46-1.44,13-2.16,19.5-.14,1.22.79,1.86,2.18,1.5a7.44,7.44,0,0,1,1.29-.34c2.16-.18,3.2,1.29,2.33,3.27a3.73,3.73,0,0,1,2.22,1.9c.52.94,1.76,1.53,1.91,2.91,0,.21.87.28,1.18.91l-2.57-.23c0-.09-.12-.17-.1-.22.21-.64.76-1.3,0-1.9a1.91,1.91,0,0,0-2.09-.06,1.4,1.4,0,0,1-1.61,0c-.54-.47-.43-1-.3-1.65a10.81,10.81,0,0,1,.57-1.86c.46-1.09-.22-2-1.48-2.08a3.25,3.25,0,0,0-2.82,1.57,3.14,3.14,0,0,1,0-.66c.08-.32.28-.67-.27-.7-.33,0-.69,0-.75.45a43.88,43.88,0,0,0-.27,6.38c0,.46.37.57.76.64s.83.14.93.66l-.12.13.15-.1a5.71,5.71,0,0,1,5.4.69c1.32.93,2.79,1,4,1.74a5.11,5.11,0,0,1,1,.7c.61.61,1.31,1.27,1,2.22s-1.27,1.16-2.18,1.28a8.43,8.43,0,0,0-4,1.94c-2.63,2.11-5.16,4.32-6,7.81-.68.46-.59,1.19-.62,1.86,0,.9,0,1.79,0,2.76a4.75,4.75,0,0,1-2.19-1.36c-.28-.26-.51-.58-1-.33-1.4.66-2.83,1.24-4.25,1.83a5.93,5.93,0,0,0-2.25,1.43,1.8,1.8,0,0,1-1.31.53ZM85.25,123.22l.24.25c.19.3.3.67.7.76l.28.32c.22-.21,0-.33-.1-.47a.86.86,0,0,0-.73-.75l-.25-.25-.23-.09Zm3.82,4.8c-.06-.05-.16-.16-.18-.14s-.06.19,0,.28.1.38.22.31S89.22,128.15,89.07,128Zm-1.9-2.55.28.47a.63.63,0,0,0,.47.54,1.12,1.12,0,0,0,.52.94l.24.1-.08-.26a1.1,1.1,0,0,0-.51-1,.56.56,0,0,0-.44-.52l-.29-.47c-.08-.22-.18-.56-.45-.33S87,125.37,87.17,125.47ZM107,137.18c0,.09,0,.17,0,.25-.2.84.33,1.14,1,1.14.48,0,1.07-.25.93-.88s-.76-.89-1.45-.64c-.15.06-.3.1-.46.15,0-1.83.7-3.55,1-5.33-.37-.1-.53,0-.62.22-.75,1.56-.62,3.27-.83,4.92C106.4,137.44,106.77,137.22,107,137.18Zm25.59-99.66c0-.34.32-.45.45-.69a1.88,1.88,0,0,0,.22-2.06,1.34,1.34,0,0,0-1.61-.53c-.88.23-1.12.86-1.23,1.63-.05.35.12.74-.17,1.05-.58-.24-.41-.75-.39-1.16,0-.91-.51-1-1.18-.95a1.65,1.65,0,0,0-1.46,1.45,4.08,4.08,0,0,0,.08,1.81c.21.63.81.33,1.28.25a.35.35,0,0,1,.25.18c.27,1.39,1.12.62,1.76.45s.86-.77,1.5-.69c.11.34-.09.63-.14,1-.11.64-.35,1.43.1,1.89.68.69.36.93-.22,1.35s-.94.93-.57,1.59a1.66,1.66,0,0,0,1.8.78,1.76,1.76,0,0,0,1.21-1c.59-1,.39-1.34-.73-1.38-.21,0-.42,0-.42-.38a5.08,5.08,0,0,0,2.37-1.94,2,2,0,0,0,0-2.2,1.59,1.59,0,0,0-1.85-.6C133.27,37.43,133,37.72,132.57,37.52ZM88.26,52.29,88.19,52l-.12.09.2.22a105,105,0,0,1,2.34,11.63,121.36,121.36,0,0,1,1.92,13.32c.12,2.24.08,4.49.34,6.74.33,2.92.73,5.83.88,8.78.19,3.72.41,7.43.79,11.13.16,1.6-.08,3.25.55,4.79.09-5.32.06-10.62-.33-15.94-.38-5.13-.67-10.28-.63-15.44a27,27,0,0,0-.31-4.4,130.92,130.92,0,0,0-2.9-13.28C90.28,57.1,89.74,54.52,88.26,52.29Zm29-22.43.06.06c-.07.94-.63,1.9.13,2.82.1.11-.06.45-.13.69-.53,1.89-.33,2.15,1.63,2.1a2.1,2.1,0,0,0,.84-.08c1.07-.57,1.64-.35,1.54.95a1.09,1.09,0,0,0,1-.63,6.13,6.13,0,0,0,.71-5.05,1.9,1.9,0,0,0-3.19-1c-.41.29-.77.64-1.18,1-.29-.66.63-1.39.19-1.52-1.15-.32-.65-1.06-.54-1.57a1.87,1.87,0,0,0-.39-2c-.66-.56-1.41-.24-2.11,0a6.1,6.1,0,0,0-1,.6c.69-1.06-.32-1.36-.4-2-.14-1.07-.82-1.2-1.66-1.19-1.3,0-1.69.41-2.12,2.21-.68-.63-1.26-.55-1.65.26s-.44,1.49.48,2c.42.22,1,.39,1.2.75.75,1.5,1.86,1.37,3.16.8a3.58,3.58,0,0,1,.09.65c0,1.07.46,1.38,1.45,1C116,30.32,116.63,30.1,117.28,29.86Zm-33,85.67h0a1.89,1.89,0,0,0-.57-1.56,2,2,0,0,0-2.14-.44,1.4,1.4,0,0,0-1.15,1.14c-.17.76.27,1.2.93,1.53s.31.63-.12.8-.78.28-.61.73c.27.68.32,1.68,1.48,1.34.18.44-.66.79,0,1.12s.71-.26,1-.56a1.57,1.57,0,0,0,.41-.6c.17-1,.83-.69,1.23-.38.82.66.73,2,1.69,2.59a.66.66,0,0,1-.08.22c-.74,1.22,0,2,.83,2.75s1.42.77,2.1-.07a.35.35,0,0,1,.33,0c1,.64,1.72.11,2.62-.81a2.5,2.5,0,0,0,.24,2.74,2.92,2.92,0,0,0,2.15,1c1.05-.06,1,.3,1.12,1.07s.33,1.62,1.42.85c.21-.15.39-.13.52.08.29.46.61.8,1.16.33a1.57,1.57,0,0,0,.77-1.18c0-1.22.14-2.44.2-3.66a12.15,12.15,0,0,1,.08-2.57,68.54,68.54,0,0,0,1.5-9.43c.14-1.18-.28-2.67,1.24-3.41.14-.06.17-.44.18-.68.24-4,.51-8,.71-12,.33-6.59-.33-13.19,0-19.78.13-2.62-.08-5.24-.17-7.86-.13-4.3-.06-8.61,0-12.92a26.32,26.32,0,0,0-.39-4.05c-.07,7-1.69,13.85-1.94,20.82-.6-4.56-.6-9.17-1.53-13.87-.31,2.59.1,5,0,7.41-.23,5.32-.17,10.65-.36,16-.17,4.46-.26,8.92-.4,13.38-.23,7.38-.16,14.77-.7,22.15-.19,2.69,0,5.41-.07,8.11a3.44,3.44,0,0,1-.1,1c-.06.22-.53.41-.51.21.11-1-1-1.06-1.21-1.89-.93-3.24-1.89-3.81-4.72-3.28-.14-.31.31-.81,0-.89-1.47-.38-.28-1-.17-1.47s.2-.7.26-1.07a1.7,1.7,0,0,0-.91-1.85c-.68-.38-1.16,0-1.57.48-.17.21-.46.39-.57.07-.26-.77-.69-.82-1.42-.66a1,1,0,0,1-1-.63C85.58,114.79,85,115,84.32,115.53ZM84,26.22c1,.55,1.37,1,.79,2.07-1,1.8-.86,2.19.93,3.55A7.48,7.48,0,0,0,85.58,30a10.15,10.15,0,0,1,0-1.83c0-.41,0-.74.58-.44.81.38.78-.47,1-.87s-.18-.52-.52-.66c-1-.39-1.08-1.07-.2-1.6,1-.63.46-1.14,0-1.61a1.45,1.45,0,0,0-1.57-.43A1.58,1.58,0,0,0,83.89,24c0,.46.16,1.34-.24,1.3-1.21-.1-.42.62-.5,1s.09.63-.23.83c-.4-.18-.29-.51-.36-.77a2.25,2.25,0,0,0-2.71-1.83,2.14,2.14,0,0,0-1.12,2.93,1,1,0,0,1-.16,1.2c-.68.71-.46,1.35.5,2-.11-2.25.65-1,1.3-.53a4.58,4.58,0,0,0,1.31.65c.57.18,1.31-.06,1.26-.6C82.8,28.71,84.38,27.82,84,26.22Zm26.46,98.52c-.12-.68.23-1.45-.52-1.74a2.28,2.28,0,0,0-2.2.43c-1.24.95-1.12,2.28-1,3.59,0,.59.56,1.22-.38,1.67-.34.16-.12.74.14,1.1,1,1.32,2.47,1.18,3.42-.3.28-.43.29-1.09,1.09-1.15,1-.08,1.34-.78,1.06-1.68-.21-.69,0-1,.56-1.39a1.46,1.46,0,0,0-.11-2.4c-.49-.34-.85-.35-.91.36A1.52,1.52,0,0,1,110.5,124.74ZM71.36,28.32c-.29-.41.12-.76.12-1.15a1.45,1.45,0,0,0-1.41-1.64,1.28,1.28,0,0,0-1.19,1.65,5.11,5.11,0,0,0,2,3.28c.27.19.57.48,1,.18a1.85,1.85,0,0,1,2.41.16c.84.87,1.61.35,2.38.23s.59-1,.73-1.53.16-1.37-.53-1.41-.5.75-.54,1.26a3.48,3.48,0,0,1-.14.5c-1.25-2.94-1.49.1-2.34.44.08-.79.18-1.38.19-2a1.32,1.32,0,0,0-1-1.35c-.71-.21-.9.36-1.1.86C71.75,28.06,71.69,28.31,71.36,28.32Zm36.87,41.54H108c-.29,2-.46,4.05-.89,6A96.55,96.55,0,0,0,105,95.79c0,.49-.34,1.38.39,1.41.58,0,.52-.91.57-1.43.29-3,.45-6.1.54-9.16a73.07,73.07,0,0,1,1.1-10.93C108,73.77,108,71.8,108.23,69.86ZM91.17,23.54a1.77,1.77,0,0,0-1.09-1.68c-1-.49-1.56.25-2.28.82s-.37,1-.25,1.49.71,1,.3,1.59A.81.81,0,0,0,88,27a1.17,1.17,0,0,0,1.46.23,8.24,8.24,0,0,1,2.23-.91c.66-.13.83-.73.73-1.36s-.29-1-.93-.84S91,24,91.17,23.54ZM67.06,32.26c-.52.16-1.13-1-1.4.12a1.71,1.71,0,0,0,.82,1.91,1.41,1.41,0,0,0,1.73-.07c.66-.56.33-1.21,0-1.76s-.35-.63.23-1c1-.6.91-2.78,0-3.47-.62-.44-1.3-.79-2-.18a1.79,1.79,0,0,0-.58,2.1,5.16,5.16,0,0,0,.94,1.56C66.89,31.69,67.19,31.84,67.06,32.26Zm50.45,26.18c-2.12,3.37-3.11,7.16-4.13,10.94-.07.28-.19.71.26.83s.59-.23.71-.54C115.74,66,116.32,62.16,117.51,58.44Zm1.77,68a1.6,1.6,0,0,0,1.71-1.28c.2-.83-.5-1-1-1.27a19.13,19.13,0,0,0-2-.62,1.41,1.41,0,0,0-1.55.74c-.41.66.4.72.72,1a7.07,7.07,0,0,1,.56.65A1.94,1.94,0,0,0,119.28,126.42ZM126.58,38c.23-.3-.16-.41-.16-.63a4.33,4.33,0,0,0,0-.72c-.06-.78-.6-1-1.25-.61-.26.18-.27.6-.66.64-.31-.56.18-.89.36-1.32s.23-.69-.1-.89a.75.75,0,0,0-1,.21,2.66,2.66,0,0,0-.51,1.83c0,1.34.63,1.86,1.91,1.46A2.29,2.29,0,0,1,126.58,38ZM102,140c.75-.45.9-8.7,0-11.5Zm-8.62-7.3,1.54,3.11c.13.27.32.55.65.35s.12-.43,0-.66A20.88,20.88,0,0,0,93,130.6c-.36-.5-.55-1.16-1.54-1.61l1.14,2.3c.24.48.49.92-.37,1-.44,0-.6.39-.57.81a.58.58,0,0,0,.38.57.82.82,0,0,0,.86-.36A5.73,5.73,0,0,0,93.34,132.67Zm.93-84.14c.85,0,1.28-.4,1.26-1a1.22,1.22,0,0,0-1.41-1.19c-.61,0-1.34.21-1.28,1S93.67,48.41,94.27,48.53Zm-2,67.15c-.53,1.46-.23,3.06-.7,4.53a1,1,0,0,0,.8.92c.3,0,.37-.27.36-.52C92.62,119,92.84,117.3,92.23,115.68Zm24.38-72c-.52,0-1.09.13-1.07.74,0,.8.65,1.2,1.38,1.3a.83.83,0,0,0,1-.86C117.9,44.09,117.32,43.79,116.61,43.69Zm5.53,12.25c.6,0,1.22-.18,1.25-1,0-.62-.44-.94-1-.94s-1.22.26-1.3,1S121.5,55.92,122.14,55.94ZM95.4,28.76a.85.85,0,0,0-.89.94c0,.79.72.93,1.32,1s.85-.18.8-.68C96.56,29.36,96.26,28.78,95.4,28.76ZM101,46.65c-.1-.59-.43-1.15-1.1-1.17a1,1,0,0,0-1.08,1.05c0,.89.78,1.1,1.39,1.2S101,47.26,101,46.65ZM90.83,33c.68,0,1.17-.15,1.13-.89a1,1,0,0,0-1-1c-.7,0-1.29.32-1.29,1S90.35,32.92,90.83,33Zm11,5.31a.9.9,0,0,0-1-1,1.22,1.22,0,0,0-1.23,1.25c0,.55.25.9.8.84A1.45,1.45,0,0,0,101.78,38.33ZM122.25,46c.53,0,.6-.47.61-.84,0-.59-.18-1.14-.9-1.21-.48,0-.91.15-.93.71C121,45.49,121.55,45.81,122.25,46ZM102.79,32.87c-.55,0-1,.17-1,.84s.52.88,1.08.84,1.22-.17,1.17-.8S103.42,32.88,102.79,32.87Zm2.11,92.54h.21v-5.89h-.21Zm-.79-78.1c.4-.18,1.12-.1,1-.84a1,1,0,0,0-1.15-.84.86.86,0,0,0-.89.94C103.16,47.05,103.53,47.33,104.11,47.31ZM99,27.75c-.56,0-.86.26-.85.8s.25.78.74.74,1.06-.1,1.09-.72S99.48,27.83,99,27.75Zm-12.52,14a.74.74,0,0,0-.82.85c0,.37,0,.82.48.85s.83-.46.91-.95A.59.59,0,0,0,86.49,41.78ZM116.37,123c-.1-.45-.36-.84-.87-.84s-1.11.22-1.14.86a.85.85,0,0,0,1,.88A1,1,0,0,0,116.37,123ZM98.14,140.11a1.18,1.18,0,0,0,1-1.11c0-.53-.23-.86-.8-.82a.91.91,0,0,0-.88,1A.86.86,0,0,0,98.14,140.11ZM96.76,42.68c-.24.11-.79-.11-.77.55s.51.8,1,.84.84-.16.82-.68S97.35,42.68,96.76,42.68Zm19,83.14a1,1,0,0,0-1.15-.67c-.47.07-.91.26-.84.83s.58.72,1.1.66A.93.93,0,0,0,115.8,125.82ZM105.14,29.88c-.55,0-1,.24-1,.81s.25.68.68.68a1,1,0,0,0,1-1C105.86,30,105.5,29.89,105.14,29.88ZM81,39.52a.81.81,0,0,0-.8-.62c-.44,0-.65.22-.68.66s.14.62.55.57S80.82,40,81,39.52Zm5.73-.59c0-.41-.18-.55-.5-.56s-.82.14-.89.61c0,.3,0,.67.47.69S86.52,39.32,86.68,38.93Zm36.93,11.73c-.07-.38-.28-.67-.7-.65a.81.81,0,0,0-.85.7c-.06.44.26.54.61.54S123.47,51.16,123.61,50.66Zm2.12-4.35c.4.06.66-.1.66-.5a.83.83,0,0,0-.86-.94c-.44,0-.83.17-.84.66C124.68,46.22,125.34,46.12,125.73,46.31ZM97.55,134a.71.71,0,0,0-.66.85c0,.39.25.65.62.61a.9.9,0,0,0,.87-1C98.38,134,98,134,97.55,134ZM68.36,36.85a1.53,1.53,0,0,0-1.08-1c-.3-.07-.46.2-.38.46.18.52.35,1.11,1,1.25C68.28,37.59,68.34,37.27,68.36,36.85ZM99,35c.39-.13.74-.35.72-.82a.5.5,0,0,0-.66-.5.81.81,0,0,0-.68.87C98.44,34.86,98.69,35,99,35ZM92,28.4c.33,0,.76,0,.77-.51a.63.63,0,0,0-.72-.64.74.74,0,0,0-.76.65C91.25,28.36,91.65,28.36,92,28.4Zm6.11,103c0-.27,0-.67-.51-.58a.8.8,0,0,0-.71.85c0,.31.14.76.49.74C97.89,132.39,98.12,132,98.12,131.41Zm22.5-89.69c0-.42-.33-.6-.7-.7s-.6,0-.65.35c0,.5.24.75.71.8A.53.53,0,0,0,120.62,41.72Zm-34.15-5.3c0-.31-.07-.6-.46-.55a.62.62,0,0,0-.59.65c0,.37.26.47.58.47S86.46,36.73,86.47,36.42Zm-9.1,2.79c-.23.13-.57.14-.6.51s.21.42.47.41a.53.53,0,0,0,.6-.48C77.87,39.37,77.69,39.19,77.37,39.21Zm6.9,1.55c0-.23-.09-.41-.33-.42s-.5.2-.5.54.09.44.32.44S84.23,41.07,84.27,40.76Zm24.64,93.92c.27-.07.58-.12.63-.44s-.22-.48-.53-.5-.57,0-.6.41A.45.45,0,0,0,108.91,134.68ZM82.3,37.36c0-.35-.32-.34-.55-.33a.53.53,0,0,0-.57.51.38.38,0,0,0,.46.43A.84.84,0,0,0,82.3,37.36Zm35.37,20.09a1.11,1.11,0,0,0,0,.23s0,0,.05,0,0-.14,0-.21S117.69,57.48,117.67,57.45Z" transform="translate(-11.19 -11.6)"/><path fill="#49453e" d="M82.12,157.37c-.46.2-.45.64-.54,1a13.94,13.94,0,0,1-4.69,7.82c-2.27,1.92-4.25,4.17-6.48,6.14a7.53,7.53,0,0,0-2,3.17,4.3,4.3,0,0,1-2.3,2.4,16.33,16.33,0,0,0-4.51,3.34C60,183,57.87,183,55.77,182.93c-.58,0-.55-.37-.27-.75s.54-.51.53-.93l.1-.05s0,0,0-.08l-.12.12a15,15,0,0,0-4.1,2.38c-1.79,1.26-3.8,1.35-5.82,1.53-.87.08-1-.35-.6-1.05a8.44,8.44,0,0,1,3.46-3c.78-.45,1.57-.87,2.37-1.29a12.47,12.47,0,0,0,5-4.94,15.84,15.84,0,0,1,3.08-3.93,3.46,3.46,0,0,0,1.19-1.38,2,2,0,0,0,.1-.26l-.26.11c-2,1.62-4.16,3.14-6.06,4.9A30.81,30.81,0,0,1,44.43,180c-1.63.66-3.24,1.36-4.87,2a6.38,6.38,0,0,1-1.07.24c-.37.08-1-.6-1.1.16-.1.6-.39,1.39.5,1.92-.52.15-1.19.11-1.08.91a.36.36,0,0,1-.37.4,3.4,3.4,0,0,1-2.28-1.32c-.56-.66.2-1,.49-1.55-1.76.11-3.47.25-5.19.31-1.49.06-3,.56-4.49.19-.4-.1-.88-.12-.93-.63s.45-.58.84-.68a60.73,60.73,0,0,1,11.41-2.22,7.12,7.12,0,0,0,2.75-1l.5-.25c.32-.07.73,0,.92-.42a.82.82,0,0,0-.92.43.54.54,0,0,0-.49.25,3.66,3.66,0,0,1-1.66-.33c-1.17-.35-.63-1.27-.26-2a3,3,0,0,1,4.45-.24c1.15,1.39,1.21,1.37,2.88.67a61.77,61.77,0,0,0,22.7-16.59c2-2.34,4.44-4.38,6.52-6.69a130.4,130.4,0,0,0,8.65-10.67c.34-.46.75-.86,1.13-1.29.17,0,.33-.07.38-.27h0c.91,0,1.58-.83,2.58-.84,0,1-.73,1.76-.81,2.76.77,0,1.06-.88,1.79-.82.34.58,0,1.12-.14,1.64-1,3.95-2.64,7.46-6.22,9.78-1.09.7-2.08,1.57-3.16,2.32a15.11,15.11,0,0,0-5.41,6.21,31.57,31.57,0,0,1-6.4,8.62c-1.36,1.42-2.76,2.8-4.13,4.21-.3.3-.77.52-.73,1.07l-.31.06.08.14.24-.19c1.88-.93,3.23-2.59,5-3.67,2.21-1.34,3.94-3.28,6-4.79,1.77-1.27,2.31-3.5,3.55-5.21,1.12-1.56,2-3.27,3.08-4.87a7.61,7.61,0,0,1,3.33-2.85c.37.89-.35,1.65-.09,2.44ZM62.18,168c.16,0,.25-.08.25-.25.1,0,.24,0,.11-.16l-.12.15a3,3,0,0,1-.25.25.23.23,0,0,0-.24.25.83.83,0,0,0-.8.67l-.12.22.22-.12c.4-.1.7-.3.71-.77A.21.21,0,0,0,62.18,168Zm1.48-1.23.24-.25c.08,0,.26,0,.09-.18l-.09.17a.23.23,0,0,0-.25.25c-.16,0-.24.08-.24.25-.22,0-.4,0-.46.25,0,0,0,.1.06.1.23,0,.33-.16.4-.35Zm-9.61,5.9a3.74,3.74,0,0,0-1.53.73c-3.86,2.92-8.36,4.57-12.74,6.47a5.4,5.4,0,0,0-2,1c.25.24.5.15.72.12a32.24,32.24,0,0,0,10.74-4,12.32,12.32,0,0,0,4.86-4.34l0-.09Zm13.3-3.92a.65.65,0,0,0-.75-.11c-2.89,1.12-5.33,3-8,4.59a1.87,1.87,0,0,0-1.11,1.65c0,1.22,0,2.44,0,4C60.09,174.54,63.55,171.53,67.35,168.71Z" transform="translate(-11.19 -11.6)"/><path fill="#7ec4e0" d="M107,13.38c.14-.72-.42-.82-.89-.89a3,3,0,0,0-3.44,1.95c-.08-.79-.34-1-1-1.06-1.41-.07-1.91,1-2.54,1.91-.75-1.72-1.89-2.27-3.86-1.86-1.11.23-1.81,1.26-1.86,2.75-1-.64-2.1-.31-3.14-.15a.86.86,0,0,0-.65,1.31.77.77,0,0,1-.33,1.06c-.42.32-.73.14-1-.25s-.88-.51-1.1-.08-.4.22-.7.13A2,2,0,0,0,83.72,20c-.21,1.12-.84,1.38-1.69.61-.6-.53-1.56-.11-2-1s-1-1.52-.12-2.28c.63-.57,1.7-.22,2.22.79s1,1,1.62.21c1-1.24,2.38-1,3.65-1.14a1.57,1.57,0,0,0,1.27-.77,2.85,2.85,0,0,1,2.84-1.5,1.72,1.72,0,0,0,1.72-.8c1.5-1.95,3.56-2.24,5.75-1,.41.22.72.39,1.17-.05a2.6,2.6,0,0,1,2.57-.67,1.82,1.82,0,0,0,1.17-.22c1.45-.55,2.88-1,4.17.36.28.29.71.18,1.06.14,1.73-.15,3.47-.08,5.21-.2,2.23-.15,3.07,1,2.49,3.22-.12.45,0,.59.39.67,1.09.23,1.92.68,1.87,2,0,.54.45.61.84.72a1.74,1.74,0,0,1,1.3,2c0,.37,0,.59.32.78a.75.75,0,0,0,1-.12,1.73,1.73,0,0,1,2.44.06,1.21,1.21,0,0,1-.1,1.76,2.16,2.16,0,0,1-2.59.78c-.19-.13-.48-.35-.47-.52.08-1.49-1-1.39-2.07-1.55.26-.74,1-1.44.36-2.23s-1.35-.59-2.12-.54c.32-2.08-.56-2.82-2.94-2.36a6.26,6.26,0,0,1,.49-.94c.59-.73.94-1.51.26-2.32a2.42,2.42,0,0,0-2.55-.71,3.33,3.33,0,0,0-2.09,1.59c-.07,0-.17-.1-.16-.13.23-1,.25-1.58-1.21-1.3-.84.16-1.83-.17-2.74.15ZM123.58,22c-.61.12-1.36.34-1.53,1.14a.72.72,0,0,0,.86.79c.77-.11,1.57-.4,1.73-1.27C124.75,22.06,124.18,22,123.58,22ZM80.43,17.68a.5.5,0,0,0-.5.66,1.52,1.52,0,0,0,1.38,1.32c.32.05.86-.25.71-.65A1.76,1.76,0,0,0,80.43,17.68Z" transform="translate(-11.19 -11.6)"/><path fill="#7ec4e0" d="M137.68,32.33a1.8,1.8,0,1,1-3.59.05,1.8,1.8,0,0,1,3.59-.05Z" transform="translate(-11.19 -11.6)"/><path fill="#7ec4e0" d="M140.45,39.51c1.13,0,1.72.54,1.69,1.6a2,2,0,0,1-1.89,2,2,2,0,0,1-1.7-2A1.86,1.86,0,0,1,140.45,39.51Z" transform="translate(-11.19 -11.6)"/><path fill="#7ec4e0" d="M141.28,22.79a1.74,1.74,0,0,1-1.87,1.67,1.58,1.58,0,0,1-1.64-1.72,1.62,1.62,0,0,1,1.82-1.68A1.75,1.75,0,0,1,141.28,22.79Z" transform="translate(-11.19 -11.6)"/><path fill="#7ec4e0" d="M61.31,27.5A1.9,1.9,0,0,1,63,29.25a1.61,1.61,0,1,1-3.2-.29A1.45,1.45,0,0,1,61.31,27.5Z" transform="translate(-11.19 -11.6)"/><path fill="#7ec4e0" d="M75,47.83a1.51,1.51,0,0,1-1.56,1.43,1.55,1.55,0,0,1-1.59-1.63,1.59,1.59,0,1,1,3.15.2Z" transform="translate(-11.19 -11.6)"/><path fill="#7ec4e0" d="M67.72,12.43A1.32,1.32,0,0,1,69,13.9a1.35,1.35,0,0,1-1.48,1.45A1.43,1.43,0,0,1,66,13.89C66,13,66.47,12.43,67.72,12.43Z" transform="translate(-11.19 -11.6)"/><path fill="#7ec4e0" d="M69.32,23a1.5,1.5,0,0,1-1.65,1.52A1.34,1.34,0,0,1,66.21,23a1.42,1.42,0,0,1,1.62-1.46C68.8,21.55,69.18,22.15,69.32,23Z" transform="translate(-11.19 -11.6)"/><path fill="#7ec4e0" d="M135,25.21a1.67,1.67,0,0,1-1.35.73c-1.07.16-2-.32-2-1.09,0-1.06.81-1.47,1.71-1.59.72-.09,1.54-.2,2,.58a1,1,0,0,1-.36,1.38c0-1.29-.88-1.82-2.13-1.25a.79.79,0,0,0-.56.94c.08.44.42.53.8.59C133.8,25.6,134.38,25.18,135,25.21Z" transform="translate(-11.19 -11.6)"/><path fill="#7ec4e0" d="M141,36.56c-.72-.24-1.93-.13-2-1.25s1.06-1.1,1.84-1.17c1.06-.09,2.1.66,2,1.39C142.7,36.48,141.88,36.47,141,36.56Zm-.26-1.78c-.44.08-1.24,0-1.21.59s.83.89,1.42.84c.43,0,1.24.06,1.19-.7S141.39,34.85,140.78,34.78Z" transform="translate(-11.19 -11.6)"/><path fill="#7ec4e0" d="M68.25,43.21c.57,0,1.79,1.22,1.7,1.69a.94.94,0,0,1-1,.86c-1.09-.18-1-1.24-1.28-2C67.52,43.38,67.86,43.19,68.25,43.21Z" transform="translate(-11.19 -11.6)"/><path fill="#7ec4e0" d="M148.31,37.28c.46,0,.84.42.86,1a1,1,0,0,1-1,1.11,1.11,1.11,0,0,1-1.19-1.13C146.9,37.62,147.39,37.3,148.31,37.28Z" transform="translate(-11.19 -11.6)"/><path fill="#7ec4e0" d="M122.73,16.84a.86.86,0,0,1-1-1,1,1,0,0,1,1.15-1.11,1,1,0,0,1,1,1C123.89,16.52,123.44,16.83,122.73,16.84Z" transform="translate(-11.19 -11.6)"/><path fill="#7ec4e0" d="M133,16.33c-.67,0-1.1-.33-1.14-1A1.07,1.07,0,0,1,134,15.2,1,1,0,0,1,133,16.33Z" transform="translate(-11.19 -11.6)"/><path fill="#7ec4e0" d="M70.55,17.08s-.14-.09-.16-.16A.8.8,0,0,1,71,15.8a2.12,2.12,0,0,1,2.17.79,1.15,1.15,0,0,1-1.39,1.82,1.2,1.2,0,0,1-.76-.58h0c.43-.13.76.25,1.17.24s.93-.24.75-.8a1.39,1.39,0,0,0-1.29-1c-.59,0-1.07.05-1.12.77Z" transform="translate(-11.19 -11.6)"/><path fill="#7ec4e0" d="M83.56,12a.9.9,0,0,1,.94,1,.86.86,0,0,1-.92.92.93.93,0,0,1-1.06-.94C82.53,12.35,82.85,12,83.56,12Z" transform="translate(-11.19 -11.6)"/><path fill="#7ec4e0" d="M125.4,26.58c.5.1.94.28,1,.89s-.27,1.07-.89,1.07a.92.92,0,0,1-1-.86C124.42,27,124.83,26.74,125.4,26.58Z" transform="translate(-11.19 -11.6)"/><path fill="#7ec4e0" d="M132.81,29.64c-.56,0-1.12,0-1.18-.72s.4-.86.87-1a2.62,2.62,0,0,1,2.46.19c.76.49.7,1.05-.13,1.64l-.09-.11c.29-.9-.37-1.52-1.5-1.34-.38,0-.88.08-1.06.49s.48.55.62.9Z" transform="translate(-11.19 -11.6)"/><path fill="#7ec4e0" d="M55.89,25.44c-.76,0-1-.37-1-1a.86.86,0,0,1,.94-.9.91.91,0,0,1,1,1A.77.77,0,0,1,55.89,25.44Z" transform="translate(-11.19 -11.6)"/><path fill="#7ec4e0" d="M69.81,21.27a.73.73,0,0,1-.83-.81c0-.47.39-.69.79-.82a2.46,2.46,0,0,1,2.52,1.08c.23.5,0,.77-.48.85l-.06-.08a.81.81,0,0,0-.59-1.14c-.45-.15-.93-.41-1.4,0s-.08.65,0,1Z" transform="translate(-11.19 -11.6)"/><path fill="#7ec4e0" d="M78.82,22a.81.81,0,0,1-.86.82.83.83,0,0,1-.93-.77.81.81,0,0,1,.79-.9C78.4,21.11,78.68,21.5,78.82,22Z" transform="translate(-11.19 -11.6)"/><path fill="#7ec4e0" d="M75.07,14.68c.43.08.78.33.77.79a.8.8,0,0,1-.9.8c-.52,0-.68-.39-.67-.85A.7.7,0,0,1,75.07,14.68Z" transform="translate(-11.19 -11.6)"/><path fill="#7ec4e0" d="M142,45.92c.46.1.84.3.79.78a.88.88,0,0,1-.91.82.77.77,0,0,1-.74-.93A.81.81,0,0,1,142,45.92Z" transform="translate(-11.19 -11.6)"/><path fill="#7ec4e0" d="M131.78,21.75a.71.71,0,0,1-.79.73.75.75,0,0,1-.8-.85.73.73,0,0,1,.77-.77A.87.87,0,0,1,131.78,21.75Z" transform="translate(-11.19 -11.6)"/><path fill="#7ec4e0" d="M75.73,22.22c-.31-.3-.3-.94-.88-.65a.77.77,0,0,0-.44.68c0,.51.35.42,1,.25-.61.52-1,.58-1.29.26a.71.71,0,0,1,0-1,1.18,1.18,0,0,1,1.32-.65C75.85,21.23,76,21.59,75.73,22.22Z" transform="translate(-11.19 -11.6)"/><path fill="#7ec4e0" d="M127,31.81c.41-.23,1-.44.52-.9-.26-.24-.65-.95-1.11-.16-.1.17-.12.29-.29.09a.47.47,0,0,1,0-.66c.34-.39.73-.26,1.11-.09.55.25,1,.62.92,1.29S127.65,32.08,127,31.81Z" transform="translate(-11.19 -11.6)"/><path fill="#7ec4e0" d="M61.92,24.73a.81.81,0,0,1-1-1c0-.64.52-.77,1-.78s1.33,0,1.72.68l-.1.11a6.28,6.28,0,0,0-.94-.27c-.39,0-.86-.16-1.12.27s.27.61.38.94Z" transform="translate(-11.19 -11.6)"/><path fill="#7ec4e0" d="M115,19.7c-.48-.13-.74-.39-.68-.89s.25-.74.71-.65a.76.76,0,0,1,.7.86A.77.77,0,0,1,115,19.7Z" transform="translate(-11.19 -11.6)"/><path fill="#7ec4e0" d="M59.19,33.3a.69.69,0,1,1-1.37.06.61.61,0,0,1,.64-.72A.66.66,0,0,1,59.19,33.3Z" transform="translate(-11.19 -11.6)"/><path fill="#7ec4e0" d="M137.83,42.74c-.13.32-.32.61-.69.59a.59.59,0,0,1-.59-.76c.06-.37.29-.62.68-.53A.75.75,0,0,1,137.83,42.74Z" transform="translate(-11.19 -11.6)"/><path fill="#7ec4e0" d="M63.66,32c-.34-.11-.63-.3-.57-.68a.64.64,0,0,1,.69-.56.57.57,0,0,1,.55.67C64.3,31.8,64,31.91,63.66,32Z" transform="translate(-11.19 -11.6)"/><path fill="#7ec4e0" d="M76.67,24.21c-.89-.43-1.52-.26-1.87.69-.16-.69-.14-.85.29-1A1.19,1.19,0,0,1,76.67,24.21Z" transform="translate(-11.19 -11.6)"/><path fill="#7ec4e0" d="M66.84,18.34a1.66,1.66,0,0,0-1.65.88c.19-1.17.7-1.41,1.68-.91Z" transform="translate(-11.19 -11.6)"/><path fill="#7ec4e0" d="M64,23.92c.55.9.32,1.16-1.07,1.21.21-.48,1.21-.27,1-1.11Z" transform="translate(-11.19 -11.6)"/><path fill="#7ec4e0" d="M134.83,29.71c-.7.68-1.36.47-2-.07h0l1.94,0Z" transform="translate(-11.19 -11.6)"/><path fill="#7ec4e0" d="M129.17,28.12c.51.52.84,1-.06,1.51l0,0,0-1.45Z" transform="translate(-11.19 -11.6)"/><path fill="#7ec4e0" d="M71.81,21.57c-.71.18-1.44.56-2-.3h0a3.56,3.56,0,0,0,1.94.21Z" transform="translate(-11.19 -11.6)"/><path fill="#7ec4e0" d="M138.18,27.87c.44-.69.88-.42,1.31,0l-.05.06h-1.2Z" transform="translate(-11.19 -11.6)"/><path fill="#7ec4e0" d="M66.87,18.31c.61.15.46.49.08.89,0-.29-.07-.58-.11-.86Z" transform="translate(-11.19 -11.6)"/><path fill="#7ec4e0" d="M139.94,29.15c-.56.32-1.1.54-1.47-.25h0a4.26,4.26,0,0,0,1.5.25Z" transform="translate(-11.19 -11.6)"/><path fill="#7ec4e0" d="M127.85,28.14c.22-.66.53-.95,1.09-.28l-.1.1a1.11,1.11,0,0,0-.93.23Z" transform="translate(-11.19 -11.6)"/><path fill="#7ec4e0" d="M138.22,28.66c-.64-.23-.53-.5,0-.79l.06.07c0,.24,0,.48,0,.72Z" transform="translate(-11.19 -11.6)"/><path fill="#7ec4e0" d="M140,28.17c.46.33.55.66,0,1h0v-1Z" transform="translate(-11.19 -11.6)"/><path fill="#7ec4e0" d="M128.13,29.16l.31.3-.15.08-.15-.4Z" transform="translate(-11.19 -11.6)"/><path fill="#7ec4e0" d="M128.73,50c.05.06.1.09.12.14s0,.08,0,.11-.13.12-.15,0A.8.8,0,0,1,128.73,50Z" transform="translate(-11.19 -11.6)"/><path fill="#7ec4e0" d="M127.91,28.19l0,.72h0c-.29-.24-.34-.49,0-.76Z" transform="translate(-11.19 -11.6)"/><path fill="#7ec4e0" d="M70.79,17.58c-.22-.1-.25-.28-.24-.5v0a.36.36,0,0,1,.24.49Z" transform="translate(-11.19 -11.6)"/><path fill="#7ec4e0" d="M139.49,27.88a.48.48,0,0,1,.46.29h0a.38.38,0,0,1-.51-.22Z" transform="translate(-11.19 -11.6)"/><path fill="#7ec4e0" d="M61.94,24.72l.32.08-.11.13-.23-.2Z" transform="translate(-11.19 -11.6)"/><path fill="#7ec4e0" d="M128.14,29.14c-.16,0-.22-.1-.25-.24h0l.25.25Z" transform="translate(-11.19 -11.6)"/><path fill="#7ec4e0" d="M71.06,41.48l-.25.25-.1-.12c.08-.08.16-.15.23-.23Z" transform="translate(-11.19 -11.6)"/><path fill="#7ec4e0" d="M71,17.83l-.25-.25h0c.18,0,.26.08.25.25Z" transform="translate(-11.19 -11.6)"/><path fill="#7ec4e0" d="M129.11,29.63l-.1.13s0-.06,0-.07a.23.23,0,0,1,.1,0Z" transform="translate(-11.19 -11.6)"/><path fill="#7ec4e0" d="M107,13.41l-.15.11.12-.14Z" transform="translate(-11.19 -11.6)"/><path fill="#7ec4e0" d="M63.86,24l-.24-.24.1-.11c.08.08.17.16.25.25Z" transform="translate(-11.19 -11.6)"/><path fill="#7ec4e0" d="M129.09,28.2l-.25-.24.1-.1c.08.08.15.17.23.26Z" transform="translate(-11.19 -11.6)"/><path fill="#7ec4e0" d="M127.2,51.24c.09.08.17.17.26.24a.47.47,0,0,1-.1.1l-.23-.25Z" transform="translate(-11.19 -11.6)"/><path fill="#676258" d="M83.84,141.36c0,.2-.21.24-.38.27C83.55,141.49,83.62,141.32,83.84,141.36Z" transform="translate(-11.19 -11.6)"/><path fill="#7ec4e0" d="M138.47,28.9a.22.22,0,0,1-.25-.24h0l.23.25Z" transform="translate(-11.19 -11.6)"/><path fill="#49453e" d="M87.59,166.3c1.54-.84,2.21-2.42,3.27-3.73-.55,2.61-.45,5.51-2.53,7.5-2.86,2.74-5,6.05-7.54,9a7.91,7.91,0,0,1-4,2.52c-.39.11-.88.29-1.18,0s.1-.73.24-1.09a24.62,24.62,0,0,1,5.73-8.18c.36-.37.83-.68.92-1.26,1.54-.87,2.5-2.32,3.64-3.6a19.72,19.72,0,0,0-3.87,3.36c-3.75.82-6.61,3.2-9.55,5.5.71-4,1.65-7.74,5.08-10.24,3-2.16,3.8-5.35,4.3-8.72h0a20.92,20.92,0,0,1,4-6.22c.27-.29.44-.69,1-.88l-.46,2.28c1-.88,1.85-1.55,2.63-2.29A5.63,5.63,0,0,1,92,149.16c.68-.19.61.37.71.72.63,2.1.48,4.29.67,6.44,0,.36-.13.79.39.88a.74.74,0,0,0,.87-.53c.15-.46,0-.81-.54-.84s-.38-.31-.26-.61q1.34-3.36,2.68-6.72s.14,0,.21,0c-.07.47.24.68.59.86-.48,2.29-.11,4.64-.66,6.94-1.06,4.41-3,8.45-4.73,12.61-.42,1-.8,2.05-1.23,3.07a1.58,1.58,0,0,1-1.17,1.18c2.18-4.93,2.12-9.87,1.77-14.91a13.73,13.73,0,0,1-3.88,7.89c-.15.06-.38.16-.29.3S87.46,166.44,87.59,166.3Z" transform="translate(-11.19 -11.6)"/><path fill="#49453e" d="M102.66,160a34.52,34.52,0,0,1-1.56,9,35.9,35.9,0,0,0-1.59,10.25c0,3.22.07,6.44-.23,9.66a4.36,4.36,0,0,1-.57,2.06c-.47-.09-.47-.46-.58-.75-1.12-2.94-2.56-5.74-3.43-8.78a13.86,13.86,0,0,1,.88-9.22A73.61,73.61,0,0,1,102,160.58,4.63,4.63,0,0,1,102.66,160Z" transform="translate(-11.19 -11.6)"/><path fill="#49453e" d="M77.69,192.32l-.06.35c-1.24-.43-2.61-.13-3.84-.64-.36-.16-.29-.46-.14-.73A23.64,23.64,0,0,1,76.37,188c.39-.49,3.57-.08,4,.45a12.65,12.65,0,0,0,2.54,2.47c.41.29.79.72.59,1.25s-.87.39-1.29.28a7,7,0,0,0-4.5-.14l-.09-.07Z" transform="translate(-11.19 -11.6)"/><path fill="#49453e" d="M130.23,190.15a.48.48,0,0,1-.24,0,4.8,4.8,0,0,0-5,.35c-1,.6-2-.43-3-.24-.48.08-.55-.64-.15-1a14.46,14.46,0,0,0,1.53-2.06,4.59,4.59,0,0,1,4.84-1.32c.29.12.55.3.49.62-.2,1.14.61,1.57,1.37,2.06a3.21,3.21,0,0,1,.74.63c.17.21.38.47.25.77S130.5,190.12,130.23,190.15Z" transform="translate(-11.19 -11.6)"/><path fill="#49453e" d="M74.5,185.47c-.24.72.6,1.88-.8,2.4-.13,0,0,.84,0,1.29s0,.77-.51.63a8.29,8.29,0,0,1-4.11-2.26,1.19,1.19,0,0,1,.19-1.89c1-.83,2-1.63,3-2.4a2.1,2.1,0,0,1,1.9-.16c.61.19.26.85.32,1.3A7.71,7.71,0,0,1,74.5,185.47Z" transform="translate(-11.19 -11.6)"/><path fill="#49453e" d="M97.68,162.55c-2.26,6.7-4.52,13.4-6.86,20.31.07-5.32,1-10.15,3.73-14.56,1.13-1.84,1.6-4,2.77-5.84Z" transform="translate(-11.19 -11.6)"/><path fill="#49453e" d="M144.66,184.9l1.92.26c.39,0,.9-.12,1,.47.06.43.19,1-.1,1.31s-.83.05-1.22-.12a9.84,9.84,0,0,1-2.83-1.9,1.17,1.17,0,0,1,.05-2c.9-.77,1.86-1.44,2.7-2.29a2,2,0,0,1,2.19-.15c.65.29.56,1,.4,1.53-.22.74.47,1.61-.27,2.21s-1.42.12-2.14.26c-.55.11-1.11.18-1.67.27Z" transform="translate(-11.19 -11.6)"/><path fill="#49453e" d="M105.51,185.73a16.14,16.14,0,0,1-.85-14.7A68.65,68.65,0,0,1,105.51,185.73Z" transform="translate(-11.19 -11.6)"/><path fill="#49453e" d="M101.51,145.9c-.17,1.89.41,3.71.61,5.57a5.91,5.91,0,0,1-.29,3.11c-.55,1.27-.93,2.61-1.41,3.91-.13.35-.11.82-.75,1a37.27,37.27,0,0,1,.32-7.34,40.46,40.46,0,0,0,.93-6.4Z" transform="translate(-11.19 -11.6)"/><path fill="#49453e" d="M117.06,157.86a8.09,8.09,0,0,1-4.63-4.91,18.94,18.94,0,0,1-.9-5.67c1.88,3.52,4,6.92,5.52,10.59Z" transform="translate(-11.19 -11.6)"/><path fill="#49453e" d="M125.59,171.89a3.36,3.36,0,0,1-2.13-1.33c-1.63-2.44-3-5-4.47-7.65C121,163.44,125.12,169,125.59,171.89Z" transform="translate(-11.19 -11.6)"/><path fill="#49453e" d="M61.63,187.22c.5.4,1.29-.21,1.51.62.06.22.09.61-.16.64a2.29,2.29,0,0,1-1.67-.63c-1-.77-.94-1.4,0-2.13a5.6,5.6,0,0,0,.49-.36c.46-.45,1-.92,1.6-.51s.26,1.07.19,1.61c-.09.7-.73.64-1.25.69Z" transform="translate(-11.19 -11.6)"/><path fill="#fefefe" d="M97.33,149.33c-.35-.18-.66-.39-.59-.86a.57.57,0,0,1,.29-.61h0l.24-.06c.62-.27,1.25-.48,1.8.1a.67.67,0,0,1,.1.9A1.49,1.49,0,0,1,97.33,149.33Z" transform="translate(-11.19 -11.6)"/><path fill="#fefefe" d="M116.06,144.17c-.45-.11-.76-.31-.74-.82a1.13,1.13,0,0,1,1.13-1.18.7.7,0,0,1,.77.77A1.48,1.48,0,0,1,116.06,144.17Z" transform="translate(-11.19 -11.6)"/><path fill="#fefefe" d="M96.63,142.83a27.31,27.31,0,0,0-.89-4.55c-.08-.29-.06-.74-.64-.67-.31,0-.48-.31-.41-.63a.84.84,0,0,1,.32-.47.54.54,0,0,1,.76.14,1.63,1.63,0,0,1,.38.62,15.73,15.73,0,0,1,.73,5.66Z" transform="translate(-11.19 -11.6)"/><path fill="#fefefe" d="M101.51,145.9l-.59-.1c-.24-.74-.23-1.44.71-1.57a1,1,0,0,1,1.15,1C102.78,146.1,102.06,145.91,101.51,145.9Z" transform="translate(-11.19 -11.6)"/><path fill="#fefefe" d="M88.18,140.3c-.52,0-.78-.3-.73-.79a1,1,0,0,1,1-1,.73.73,0,0,1,.82.73C89.28,139.94,88.75,140.15,88.18,140.3Z" transform="translate(-11.19 -11.6)"/><path fill="#fefefe" d="M105.54,142.93a1.14,1.14,0,0,1-1.05.84c-.49.06-.73-.29-.72-.76s.41-.75.9-.74S105.46,142.41,105.54,142.93Z" transform="translate(-11.19 -11.6)"/><path fill="#fefefe" d="M98.06,143.8l.71.26c0,.68-.43.8-.94.81a.43.43,0,0,1-.49-.43C97.35,144,97.64,143.81,98.06,143.8Z" transform="translate(-11.19 -11.6)"/><path fill="#7ec4e0" d="M97,147.86h0c0-.07,0-.13,0-.19s.06.06.06.09S97.05,147.82,97,147.86Z" transform="translate(-11.19 -11.6)"/><polygon fill="#7ec4e0" points="105.86 146.26 105.91 146.31 105.87 146.25 105.86 146.26"/><path fill="#fefefe" d="M84.32,115.53c.64-.5,1.26-.74,1.62.26a1,1,0,0,0,1,.63c.73-.16,1.16-.11,1.42.66.11.32.4.14.57-.07.41-.53.89-.86,1.57-.48a1.7,1.7,0,0,1,.91,1.85c-.06.37-.18.72-.26,1.07s-1.3,1.09.17,1.47c.28.08-.17.58,0,.89,2.83-.53,3.79,0,4.72,3.28.24.83,1.32.91,1.21,1.89,0,.2.45,0,.51-.21a3.44,3.44,0,0,0,.1-1c0-2.7-.12-5.42.07-8.11.54-7.38.47-14.77.7-22.15.14-4.46.23-8.92.4-13.38.19-5.32.13-10.65.36-16,.11-2.42-.3-4.82,0-7.41.93,4.7.93,9.31,1.53,13.87.25-7,1.87-13.82,1.94-20.82a26.32,26.32,0,0,1,.39,4.05c0,4.31-.08,8.62,0,12.92.09,2.62.3,5.24.17,7.86-.33,6.59.33,13.19,0,19.78-.2,4-.47,8-.71,12,0,.24,0,.62-.18.68-1.52.74-1.1,2.23-1.24,3.41a68.54,68.54,0,0,1-1.5,9.43,12.15,12.15,0,0,0-.08,2.57c-.06,1.22-.17,2.44-.2,3.66a1.57,1.57,0,0,1-.77,1.18c-.55.47-.87.13-1.16-.33-.13-.21-.31-.23-.52-.08-1.09.77-1.35-.07-1.42-.85S95.65,127,94.6,127a2.92,2.92,0,0,1-2.15-1,2.5,2.5,0,0,1-.24-2.74c-.9.92-1.64,1.45-2.62.81a.35.35,0,0,0-.33,0c-.68.84-1.39.72-2.1.07s-1.57-1.53-.83-2.75a.66.66,0,0,0,.08-.22c-1-.62-.87-1.93-1.69-2.59-.4-.31-1.06-.57-1.23.38a1.57,1.57,0,0,1-.41.6c-.25.3-.47.81-1,.56s.22-.68,0-1.12c-1.16.34-1.21-.66-1.48-1.34-.17-.45.24-.59.61-.73s.8-.46.12-.8-1.1-.77-.93-1.53a1.4,1.4,0,0,1,1.15-1.14,2,2,0,0,1,2.14.44,1.89,1.89,0,0,1,.57,1.56l-.07.08Z" transform="translate(-11.19 -11.6)"/><path fill="#fefefe" d="M117.28,29.86c-.65.24-1.3.46-1.94.72-1,.42-1.46.11-1.45-1a3.58,3.58,0,0,0-.09-.65c-1.3.57-2.41.7-3.16-.8-.18-.36-.78-.53-1.2-.75-.92-.48-.83-1.21-.48-2s1-.89,1.65-.26c.43-1.8.82-2.19,2.12-2.21.84,0,1.52.12,1.66,1.19.08.6,1.09.9.4,2a6.1,6.1,0,0,1,1-.6c.7-.21,1.45-.53,2.11,0a1.87,1.87,0,0,1,.39,2c-.11.51-.61,1.25.54,1.57.44.13-.48.86-.19,1.52.41-.34.77-.69,1.18-1a1.9,1.9,0,0,1,3.19,1,6.13,6.13,0,0,1-.71,5.05,1.09,1.09,0,0,1-1,.63c.1-1.3-.47-1.52-1.54-.95a2.1,2.1,0,0,1-.84.08c-2,0-2.16-.21-1.63-2.1.07-.24.23-.58.13-.69-.76-.92-.2-1.88-.14-2.82.09,0,.21-.07.08-.2Zm1.1,1.69c.09-.18.17-.27.17-.35s-.1-.16-.16-.25c0,.07-.11.13-.11.19A1.56,1.56,0,0,0,118.38,31.55Z" transform="translate(-11.19 -11.6)"/><path fill="#fefefe" d="M88.26,52.29c1.48,2.23,2,4.81,2.66,7.32a130.92,130.92,0,0,1,2.9,13.28,27,27,0,0,1,.31,4.4c0,5.16.25,10.31.63,15.44.39,5.32.42,10.62.33,15.94-.63-1.54-.39-3.19-.55-4.79-.38-3.7-.6-7.41-.79-11.13-.15-3-.55-5.86-.88-8.78-.26-2.25-.22-4.5-.34-6.74a121.36,121.36,0,0,0-1.92-13.32,105,105,0,0,0-2.34-11.63Z" transform="translate(-11.19 -11.6)"/><path fill="#fefefe" d="M84,26.22c.34,1.6-1.24,2.49-1.1,4,0,.54-.69.78-1.26.6a4.58,4.58,0,0,1-1.31-.65c-.65-.47-1.41-1.72-1.3.53-1-.67-1.18-1.31-.5-2a1,1,0,0,0,.16-1.2,2.14,2.14,0,0,1,1.12-2.93,2.25,2.25,0,0,1,2.71,1.83c.07.26,0,.59.36.77.32-.2.16-.55.23-.83s-.71-1.06.5-1c.4,0,.19-.84.24-1.3a1.58,1.58,0,0,1,.92-1.47,1.45,1.45,0,0,1,1.57.43c.47.47,1.05,1,0,1.61-.88.53-.75,1.21.2,1.6.34.14.83.12.52.66s-.19,1.25-1,.87c-.63-.3-.59,0-.58.44a10.15,10.15,0,0,0,0,1.83,7.48,7.48,0,0,1,.18,1.83c-1.79-1.36-1.94-1.75-.93-3.55C85.41,27.26,85.05,26.77,84,26.22Z" transform="translate(-11.19 -11.6)"/><path fill="#fefefe" d="M110.5,124.74a1.52,1.52,0,0,0,1.11-1.51c.06-.71.42-.7.91-.36a1.46,1.46,0,0,1,.11,2.4c-.56.39-.77.7-.56,1.39.28.9-.08,1.6-1.06,1.68-.8.06-.81.72-1.09,1.15-1,1.48-2.42,1.62-3.42.3-.26-.36-.48-.94-.14-1.1.94-.45.41-1.08.38-1.67-.08-1.31-.2-2.64,1-3.59A2.28,2.28,0,0,1,110,123C110.73,123.29,110.38,124.06,110.5,124.74Zm-3.41,4s.06,0,.06-.07,0-.05-.05-.08-.06,0-.06.07S107.07,128.73,107.09,128.76Z" transform="translate(-11.19 -11.6)"/><path fill="#fefefe" d="M71.36,28.32c.33,0,.39-.26.48-.49.2-.5.39-1.07,1.1-.86a1.32,1.32,0,0,1,1,1.35c0,.59-.11,1.18-.19,2,.85-.34,1.09-3.38,2.34-.44a3.48,3.48,0,0,0,.14-.5c0-.51-.12-1.31.54-1.26s.67.88.53,1.41.06,1.4-.73,1.53-1.54.64-2.38-.23a1.85,1.85,0,0,0-2.41-.16c-.42.3-.72,0-1-.18a5.11,5.11,0,0,1-2-3.28,1.28,1.28,0,0,1,1.19-1.65,1.45,1.45,0,0,1,1.41,1.64C71.48,27.56,71.07,27.91,71.36,28.32Z" transform="translate(-11.19 -11.6)"/><path fill="#fefefe" d="M132.57,37.52c.38.2.7-.09,1.05-.15a1.59,1.59,0,0,1,1.85.6,2,2,0,0,1,0,2.2,5.08,5.08,0,0,1-2.37,1.94c0,.36.21.38.42.38,1.12,0,1.32.41.73,1.38a1.76,1.76,0,0,1-1.21,1,1.66,1.66,0,0,1-1.8-.78c-.37-.66.08-1.22.57-1.59s.9-.66.22-1.35c-.45-.46-.21-1.25-.1-1.89,0-.32.25-.61.14-1h0c.29-.06.38-.22.25-.49h0q.31.09.24-.24Z" transform="translate(-11.19 -11.6)"/><path fill="#fefefe" d="M132.07,38.26c-.64-.08-1,.54-1.5.69s-1.49.94-1.76-.45a.35.35,0,0,0-.25-.18c-.47.08-1.07.38-1.28-.25a4.08,4.08,0,0,1-.08-1.81,1.65,1.65,0,0,1,1.46-1.45c.67-.1,1.23,0,1.18.95,0,.41-.19.92.39,1.16.29-.31.12-.7.17-1.05.11-.77.35-1.4,1.23-1.63a1.34,1.34,0,0,1,1.61.53,1.88,1.88,0,0,1-.22,2.06c-.13.24-.47.35-.45.69h0q-.27,0-.24.24h0c-.3.06-.37.23-.25.49Z" transform="translate(-11.19 -11.6)"/><path fill="#fefefe" d="M108.23,69.86c-.2,1.94-.27,3.91-.62,5.82a73.07,73.07,0,0,0-1.1,10.93c-.09,3.06-.25,6.12-.54,9.16,0,.52,0,1.46-.57,1.43-.73,0-.39-.92-.39-1.41a96.55,96.55,0,0,1,2.14-19.91c.43-2,.6-4,.89-6Z" transform="translate(-11.19 -11.6)"/><path fill="#fefefe" d="M91.17,23.54c-.21.47-.26.72.33.6s.85.33.93.84-.07,1.23-.73,1.36a8.24,8.24,0,0,0-2.23.91A1.17,1.17,0,0,1,88,27a.81.81,0,0,1-.16-1.26c.41-.58-.19-1.06-.3-1.59s-.42-1,.25-1.49,1.3-1.31,2.28-.82A1.77,1.77,0,0,1,91.17,23.54Z" transform="translate(-11.19 -11.6)"/><path fill="#fefefe" d="M67.06,32.26c.13-.42-.17-.57-.35-.78a5.16,5.16,0,0,1-.94-1.56,1.79,1.79,0,0,1,.58-2.1c.71-.61,1.39-.26,2,.18,1,.69,1,2.87,0,3.47-.58.36-.53.52-.23,1s.69,1.2,0,1.76a1.41,1.41,0,0,1-1.73.07,1.71,1.71,0,0,1-.82-1.91C65.93,31.27,66.54,32.42,67.06,32.26Z" transform="translate(-11.19 -11.6)"/><path fill="#fefefe" d="M117.51,58.44c-1.19,3.72-1.77,7.59-3.16,11.23-.12.31-.31.64-.71.54s-.33-.55-.26-.83C114.4,65.6,115.39,61.81,117.51,58.44Z" transform="translate(-11.19 -11.6)"/><path fill="#fefefe" d="M119.28,126.42a1.94,1.94,0,0,1-1.6-.77,7.07,7.07,0,0,0-.56-.65c-.32-.29-1.13-.35-.72-1a1.41,1.41,0,0,1,1.55-.74,19.13,19.13,0,0,1,2,.62c.55.23,1.25.44,1,1.27A1.6,1.6,0,0,1,119.28,126.42Z" transform="translate(-11.19 -11.6)"/><path fill="#fefefe" d="M126.58,38a2.29,2.29,0,0,0-1.42,0c-1.28.4-1.91-.12-1.91-1.46a2.66,2.66,0,0,1,.51-1.83.75.75,0,0,1,1-.21c.33.2.23.59.1.89s-.67.76-.36,1.32c.39,0,.4-.46.66-.64.65-.42,1.19-.17,1.25.61a4.33,4.33,0,0,1,0,.72C126.42,37.54,126.81,37.65,126.58,38Z" transform="translate(-11.19 -11.6)"/><path fill="#fefefe" d="M102,140v-11.5C102.86,131.27,102.71,139.52,102,140Z" transform="translate(-11.19 -11.6)"/><path fill="#fefefe" d="M70.94,41.38c-.07.08-.15.15-.23.23-1.81.51-3-.54-2.57-2.26.19-.79.66-1,1.36-.73C70.56,39,71.05,39.93,70.94,41.38Z" transform="translate(-11.19 -11.6)"/><path fill="#fefefe" d="M93.34,132.67a5.73,5.73,0,0,1-.41.65.82.82,0,0,1-.86.36.58.58,0,0,1-.38-.57c0-.42.13-.77.57-.81.86-.09.61-.53.37-1L91.49,129c1,.45,1.18,1.11,1.54,1.61a20.88,20.88,0,0,1,2.53,4.87c.09.23.21.51,0,.66s-.52-.08-.65-.35Z" transform="translate(-11.19 -11.6)"/><path fill="#fefefe" d="M94.27,48.53c-.6-.12-1.36-.36-1.43-1.22s.67-1,1.28-1a1.22,1.22,0,0,1,1.41,1.19C95.55,48.13,95.12,48.53,94.27,48.53Z" transform="translate(-11.19 -11.6)"/><path fill="#fefefe" d="M92.23,115.68c.61,1.62.39,3.29.46,4.93,0,.25-.06.56-.36.52a1,1,0,0,1-.8-.92C92,118.74,91.7,117.14,92.23,115.68Z" transform="translate(-11.19 -11.6)"/><path fill="#fefefe" d="M116.61,43.69c.71.1,1.29.4,1.29,1.18a.83.83,0,0,1-1,.86c-.73-.1-1.36-.5-1.38-1.3C115.52,43.82,116.09,43.72,116.61,43.69Z" transform="translate(-11.19 -11.6)"/><path fill="#fefefe" d="M122.14,55.94c-.64,0-1.17-.15-1.1-.88s.62-1,1.3-1,1.07.32,1,.94C123.36,55.76,122.74,55.92,122.14,55.94Z" transform="translate(-11.19 -11.6)"/><path fill="#fefefe" d="M95.4,28.76c.86,0,1.16.6,1.23,1.29.05.5-.33.76-.8.68s-1.28-.24-1.32-1A.85.85,0,0,1,95.4,28.76Z" transform="translate(-11.19 -11.6)"/><path fill="#fefefe" d="M101,46.65c0,.61-.23,1.17-.79,1.08s-1.36-.31-1.39-1.2a1,1,0,0,1,1.08-1.05C100.61,45.5,100.94,46.06,101,46.65Z" transform="translate(-11.19 -11.6)"/><path fill="#fefefe" d="M90.83,33c-.48-.1-1.2-.19-1.2-.87s.59-1,1.29-1a1,1,0,0,1,1,1C92,32.87,91.51,33,90.83,33Z" transform="translate(-11.19 -11.6)"/><path fill="#fefefe" d="M101.78,38.33a1.45,1.45,0,0,1-1.38,1.13c-.55.06-.84-.29-.8-.84a1.22,1.22,0,0,1,1.23-1.25A.9.9,0,0,1,101.78,38.33Z" transform="translate(-11.19 -11.6)"/><path fill="#fefefe" d="M122.25,46c-.7-.22-1.25-.54-1.22-1.34,0-.56.45-.75.93-.71.72.07.92.62.9,1.21C122.85,45.56,122.78,46,122.25,46Z" transform="translate(-11.19 -11.6)"/><path fill="#fefefe" d="M102.79,32.87c.63,0,1.25.27,1.3.88s-.65.76-1.17.8-1.06-.1-1.08-.84S102.24,32.88,102.79,32.87Z" transform="translate(-11.19 -11.6)"/><path fill="#fefefe" d="M127.13,51.33l.23.25c.19.45.42.94-.18,1.25a1.3,1.3,0,0,1-1.45-.25.67.67,0,0,1-.17-.88C125.93,51,126.53,51.14,127.13,51.33Z" transform="translate(-11.19 -11.6)"/><path fill="#fefefe" d="M104.9,125.41v-5.89h.21v5.89Z" transform="translate(-11.19 -11.6)"/><path fill="#fefefe" d="M104.11,47.31c-.58,0-1-.26-1-.74a.86.86,0,0,1,.89-.94,1,1,0,0,1,1.15.84C105.23,47.21,104.51,47.13,104.11,47.31Z" transform="translate(-11.19 -11.6)"/><path fill="#fefefe" d="M99,27.75c.47.08,1,.2,1,.82s-.61.68-1.09.72-.74-.25-.74-.74S98.45,27.75,99,27.75Z" transform="translate(-11.19 -11.6)"/><path fill="#fefefe" d="M107,137.18c-.21,0-.58.26-.52-.17.21-1.65.08-3.36.83-4.92.09-.19.25-.32.62-.22-.25,1.78-1,3.5-1,5.33Z" transform="translate(-11.19 -11.6)"/><path fill="#fefefe" d="M86.49,41.78a.59.59,0,0,1,.57.75c-.08.49-.31,1-.91.95s-.48-.48-.48-.85A.74.74,0,0,1,86.49,41.78Z" transform="translate(-11.19 -11.6)"/><path fill="#fefefe" d="M107,137.2c.16,0,.31-.09.46-.15.69-.25,1.28-.09,1.45.64s-.45.88-.93.88c-.67,0-1.2-.3-1-1.14,0-.08,0-.16,0-.25Z" transform="translate(-11.19 -11.6)"/><path fill="#fefefe" d="M116.37,123a1,1,0,0,1-1.05.9.85.85,0,0,1-1-.88c0-.64.6-.86,1.14-.86S116.27,122.58,116.37,123Z" transform="translate(-11.19 -11.6)"/><path fill="#fefefe" d="M98.14,140.11a.86.86,0,0,1-.7-1,.91.91,0,0,1,.88-1c.57,0,.83.29.8.82A1.18,1.18,0,0,1,98.14,140.11Z" transform="translate(-11.19 -11.6)"/><path fill="#fefefe" d="M96.76,42.68c.59,0,1,.14,1,.71s-.41.7-.82.68-1-.21-1-.84S96.52,42.79,96.76,42.68Z" transform="translate(-11.19 -11.6)"/><path fill="#fefefe" d="M115.8,125.82a.93.93,0,0,1-.89.82c-.52.06-1,0-1.1-.66s.37-.76.84-.83A1,1,0,0,1,115.8,125.82Z" transform="translate(-11.19 -11.6)"/><path fill="#fefefe" d="M105.15,29.88c.35,0,.71.09.67.51a1,1,0,0,1-1,1c-.43,0-.73-.25-.68-.68S104.59,29.89,105.15,29.88Z" transform="translate(-11.19 -11.6)"/><path fill="#fefefe" d="M81,39.52c-.13.47-.52.57-.93.61s-.57-.17-.55-.57.24-.68.68-.66A.81.81,0,0,1,81,39.52Z" transform="translate(-11.19 -11.6)"/><path fill="#fefefe" d="M86.68,38.93c-.16.39-.39.75-.92.74s-.51-.39-.47-.69c.07-.47.46-.62.89-.61S86.72,38.52,86.68,38.93Z" transform="translate(-11.19 -11.6)"/><path fill="#fefefe" d="M123.61,50.66c-.14.5-.51.6-.94.59s-.67-.1-.61-.54a.81.81,0,0,1,.85-.7C123.33,50,123.54,50.28,123.61,50.66Z" transform="translate(-11.19 -11.6)"/><path fill="#fefefe" d="M125.73,46.31c-.39-.19-1-.09-1-.78,0-.49.4-.67.84-.66a.83.83,0,0,1,.86.94C126.39,46.21,126.13,46.37,125.73,46.31Z" transform="translate(-11.19 -11.6)"/><path fill="#fefefe" d="M97.55,134c.49,0,.83,0,.83.47a.9.9,0,0,1-.87,1c-.37,0-.6-.22-.62-.61A.71.71,0,0,1,97.55,134Z" transform="translate(-11.19 -11.6)"/><path fill="#fefefe" d="M68.36,36.85c0,.42-.08.74-.46.67-.65-.14-.82-.73-1-1.25-.08-.26.08-.53.38-.46A1.53,1.53,0,0,1,68.36,36.85Z" transform="translate(-11.19 -11.6)"/><path fill="#fefefe" d="M99,35c-.34,0-.59-.12-.62-.45a.81.81,0,0,1,.68-.87.5.5,0,0,1,.66.5C99.77,34.63,99.42,34.85,99,35Z" transform="translate(-11.19 -11.6)"/><path fill="#fefefe" d="M92,28.4c-.36,0-.76,0-.71-.5a.74.74,0,0,1,.76-.65.63.63,0,0,1,.72.64C92.77,28.37,92.34,28.38,92,28.4Z" transform="translate(-11.19 -11.6)"/><path fill="#fefefe" d="M98.12,131.41c0,.56-.23,1-.73,1-.35,0-.47-.43-.49-.74a.8.8,0,0,1,.71-.85C98.09,130.74,98.1,131.14,98.12,131.41Z" transform="translate(-11.19 -11.6)"/><path fill="#fefefe" d="M120.62,41.72a.53.53,0,0,1-.64.45c-.47-.05-.76-.3-.71-.8,0-.35.34-.43.65-.35S120.59,41.3,120.62,41.72Z" transform="translate(-11.19 -11.6)"/><path fill="#fefefe" d="M86.47,36.42c0,.31-.11.56-.47.57s-.58-.1-.58-.47a.62.62,0,0,1,.59-.65C86.4,35.82,86.46,36.11,86.47,36.42Z" transform="translate(-11.19 -11.6)"/><path fill="#fefefe" d="M77.37,39.21c.32,0,.5.16.47.44a.53.53,0,0,1-.6.48c-.26,0-.5-.06-.47-.41S77.14,39.34,77.37,39.21Z" transform="translate(-11.19 -11.6)"/><path fill="#fefefe" d="M84.27,40.77c0,.3-.17.57-.51.55s-.31-.22-.32-.44.15-.56.5-.54S84.28,40.53,84.27,40.77Z" transform="translate(-11.19 -11.6)"/><path fill="#fefefe" d="M108.91,134.68a.45.45,0,0,1-.5-.53c0-.36.3-.43.6-.41s.58.15.53.5S109.18,134.61,108.91,134.68Z" transform="translate(-11.19 -11.6)"/><path fill="#fefefe" d="M82.3,37.36a.84.84,0,0,1-.66.61.38.38,0,0,1-.46-.43.53.53,0,0,1,.57-.51C82,37,82.25,37,82.3,37.36Z" transform="translate(-11.19 -11.6)"/><path fill="#fefefe" d="M86.19,124.23c-.4-.09-.51-.46-.7-.76l.15-.14a.86.86,0,0,1,.73.75Z" transform="translate(-11.19 -11.6)"/><path fill="#fefefe" d="M88.09,126.3a1.1,1.1,0,0,1,.51,1l-.16.16a1.12,1.12,0,0,1-.52-.94Z" transform="translate(-11.19 -11.6)"/><path fill="#fefefe" d="M87.65,125.77a.59.59,0,0,1,.44.53l-.17.18a.63.63,0,0,1-.47-.54Z" transform="translate(-11.19 -11.6)"/><path fill="#fefefe" d="M87.17,125.47c-.22-.1-.52-.26-.26-.49s.37.11.45.33Z" transform="translate(-11.19 -11.6)"/><path fill="#fefefe" d="M117.67,57.45s0,0,0,.07,0,.14,0,.21-.05,0-.05,0A1.11,1.11,0,0,1,117.67,57.45Z" transform="translate(-11.19 -11.6)"/><path fill="#fefefe" d="M88.27,52.28l-.2-.22.12-.09.07.32Z" transform="translate(-11.19 -11.6)"/><path fill="#fefefe" d="M89.07,128c.15.13.31.31.08.45s-.2-.16-.22-.31Z" transform="translate(-11.19 -11.6)"/><path fill="#fefefe" d="M86.37,124.08c.13.14.32.26.1.47l-.28-.32Z" transform="translate(-11.19 -11.6)"/><path fill="#fefefe" d="M87.36,125.31l.29.47-.2.16-.28-.47Z" transform="translate(-11.19 -11.6)"/><path fill="#fefefe" d="M88.6,127.26l.08.26-.24-.1Z" transform="translate(-11.19 -11.6)"/><path fill="#fefefe" d="M88.93,128.16c-.1-.09-.2-.18,0-.28s.12.09.18.14Z" transform="translate(-11.19 -11.6)"/><path fill="#fefefe" d="M111.16,121l-.15.1.12-.13Z" transform="translate(-11.19 -11.6)"/><path fill="#fefefe" d="M85.25,123.22l-.09-.23.23.09A.93.93,0,0,1,85.25,123.22Z" transform="translate(-11.19 -11.6)"/><path fill="#fefefe" d="M85.49,123.47l-.24-.25a.93.93,0,0,0,.14-.14c.09.08.17.17.25.25Z" transform="translate(-11.19 -11.6)"/><path fill="#fefefe" d="M67.35,168.71c-3.8,2.82-7.26,5.83-9.82,10.15,0-1.58,0-2.8,0-4a1.87,1.87,0,0,1,1.11-1.65c2.63-1.58,5.07-3.47,8-4.59A.65.65,0,0,1,67.35,168.71Z" transform="translate(-11.19 -11.6)"/><path fill="#fefefe" d="M54.06,172.63A12.32,12.32,0,0,1,49.2,177a32.24,32.24,0,0,1-10.74,4c-.22,0-.47.12-.72-.12a5.4,5.4,0,0,1,2-1c4.38-1.9,8.88-3.55,12.74-6.47a3.74,3.74,0,0,1,1.53-.73Z" transform="translate(-11.19 -11.6)"/><path fill="#676258" d="M39.54,178.54a.82.82,0,0,1,.92-.43c-.19.44-.6.35-.92.42Z" transform="translate(-11.19 -11.6)"/><path fill="#676258" d="M61.13,168.87a.83.83,0,0,1,.8-.67h0c0,.46-.31.66-.71.76Z" transform="translate(-11.19 -11.6)"/><path fill="#676258" d="M63.41,167c-.07.19-.17.35-.4.35,0,0-.06-.07-.06-.1.06-.24.24-.28.46-.25Z" transform="translate(-11.19 -11.6)"/><path fill="#676258" d="M39.05,178.79a.54.54,0,0,1,.49-.25h0l-.5.25Z" transform="translate(-11.19 -11.6)"/><path fill="#676258" d="M61.2,176.33l-.24.19-.08-.14.31-.06Z" transform="translate(-11.19 -11.6)"/><path fill="#676258" d="M60.4,169.38l.26-.11a2,2,0,0,1-.1.26Z" transform="translate(-11.19 -11.6)"/><path fill="#fefefe" d="M54.05,172.63l.06-.09,0,.09Z" transform="translate(-11.19 -11.6)"/><path fill="#676258" d="M56,181.24l.12-.12s0,.07,0,.08l-.1.05Z" transform="translate(-11.19 -11.6)"/><path fill="#676258" d="M63.9,166.47l.09-.17c.17.16,0,.15-.09.18Z" transform="translate(-11.19 -11.6)"/><path fill="#676258" d="M63.65,166.72a.23.23,0,0,1,.25-.25h0l-.24.25Z" transform="translate(-11.19 -11.6)"/><path fill="#676258" d="M63.66,166.73l-.25.24h0c0-.17.08-.24.24-.25Z" transform="translate(-11.19 -11.6)"/><path fill="#676258" d="M62.42,167.7l.12-.15c.13.17,0,.15-.11.16Z" transform="translate(-11.19 -11.6)"/><path fill="#676258" d="M62.17,168l.25-.25h0c0,.17-.09.24-.25.25Z" transform="translate(-11.19 -11.6)"/><path fill="#676258" d="M62.18,168a.21.21,0,0,1-.24.24h0a.23.23,0,0,1,.24-.25Z" transform="translate(-11.19 -11.6)"/><path fill="#676258" d="M61.23,169l-.22.12.12-.22Z" transform="translate(-11.19 -11.6)"/><path fill="#fefefe" d="M123.58,22c.6,0,1.17.06,1.06.66-.16.87-1,1.16-1.73,1.27a.72.72,0,0,1-.86-.79C122.22,22.34,123,22.12,123.58,22Z" transform="translate(-11.19 -11.6)"/><path fill="#fefefe" d="M80.43,17.68A1.76,1.76,0,0,1,82,19c.15.4-.39.7-.71.65a1.52,1.52,0,0,1-1.38-1.32A.5.5,0,0,1,80.43,17.68Z" transform="translate(-11.19 -11.6)"/><path fill="#fefefe" d="M135,25.21c-.65,0-1.23.39-1.9.29-.38-.06-.72-.15-.8-.59a.79.79,0,0,1,.56-.94c1.25-.57,2.18,0,2.13,1.25Z" transform="translate(-11.19 -11.6)"/><path fill="#fefefe" d="M140.78,34.78c.61.07,1.34,0,1.4.73s-.76.67-1.19.7c-.59,0-1.39-.24-1.42-.84S140.34,34.86,140.78,34.78Z" transform="translate(-11.19 -11.6)"/><path fill="#fefefe" d="M71,17.84c0-.17-.07-.26-.25-.25a.36.36,0,0,0-.24-.49c0-.72.53-.81,1.12-.77a1.39,1.39,0,0,1,1.29,1c.18.56-.21.8-.75.8S71.46,17.71,71,17.84Z" transform="translate(-11.19 -11.6)"/><path fill="#fefefe" d="M134.74,29.6l-1.94,0c-.14-.35-.86-.34-.62-.9s.68-.44,1.06-.49C134.37,28.08,135,28.7,134.74,29.6Z" transform="translate(-11.19 -11.6)"/><path fill="#fefefe" d="M71.75,21.49a3.56,3.56,0,0,1-1.94-.21c-.13-.32-.48-.64,0-1s.95-.11,1.4,0A.81.81,0,0,1,71.75,21.49Z" transform="translate(-11.19 -11.6)"/><path fill="#fefefe" d="M138.46,28.91l-.23-.25c0-.24,0-.48,0-.72h1.2a.38.38,0,0,0,.51.22c0,.34,0,.67,0,1A4.26,4.26,0,0,1,138.46,28.91Z" transform="translate(-11.19 -11.6)"/><path fill="#676258" d="M82.29,170.83a19.72,19.72,0,0,1,3.87-3.36c-1.14,1.28-2.1,2.73-3.64,3.6Z" transform="translate(-11.19 -11.6)"/><path fill="#676258" d="M87.59,166.3c-.13.14-.29.38-.45.11s.14-.24.29-.3S87.54,166.24,87.59,166.3Z" transform="translate(-11.19 -11.6)"/><path fill="#676258" d="M77.69,192.32l-.1-.07.09.07Z" transform="translate(-11.19 -11.6)"/><path fill="#7ec4e0" d="M84.32,115.53l0,.09.07-.08Z" transform="translate(-11.19 -11.6)"/><path fill="#7ec4e0" d="M118.38,31.55a1.56,1.56,0,0,1-.1-.41c0-.06.07-.12.11-.19.06.09.15.17.16.25S118.47,31.37,118.38,31.55Z" transform="translate(-11.19 -11.6)"/><path fill="#7ec4e0" d="M117.28,29.86l.13-.14c.13.13,0,.16-.08.2Z" transform="translate(-11.19 -11.6)"/><path fill="#7ec4e0" d="M107.09,128.76s-.06,0,0-.08,0,0,.06-.07.05.06.05.08S107.11,128.73,107.09,128.76Z" transform="translate(-11.19 -11.6)"/><path fill="#7ec4e0" d="M132.07,38.26c-.12-.26,0-.43.25-.49C132.45,38,132.36,38.2,132.07,38.26Z" transform="translate(-11.19 -11.6)"/><path fill="#7ec4e0" d="M132.32,37.76q0-.25.24-.24Q132.64,37.85,132.32,37.76Z" transform="translate(-11.19 -11.6)"/></svg>
