<!-- Created with Inkscape (http://www.inkscape.org/) -->
<svg xmlns:dc="http://purl.org/dc/elements/1.1/" xmlns:cc="http://creativecommons.org/ns#" xmlns:rdf="http://www.w3.org/1999/02/22-rdf-syntax-ns#" xmlns:svg="http://www.w3.org/2000/svg" xmlns="http://www.w3.org/2000/svg" xmlns:sodipodi="http://sodipodi.sourceforge.net/DTD/sodipodi-0.dtd" xmlns:inkscape="http://www.inkscape.org/namespaces/inkscape" width="82.788208" height="111.50082" id="kingfisher" version="1.1" inkscape:version="0.48.4 r9939" sodipodi:docname="svg13649">
  <defs id="kingfisher" />
  <sodipodi:namedview id="base" pagecolor="#ffffff" bordercolor="#666666" borderopacity="1.0" inkscape:pageopacity="0.0" inkscape:pageshadow="2" inkscape:zoom="3.959798" inkscape:cx="13.471249" inkscape:cy="70.048126" inkscape:document-units="px" inkscape:current-layer="g6273" showgrid="false" fit-margin-top="0" fit-margin-left="0" fit-margin-right="0" fit-margin-bottom="0" inkscape:window-width="1920" inkscape:window-height="1025" inkscape:window-x="-3" inkscape:window-y="-3" inkscape:window-maximized="1" />
  <metadata id="metadata13654">
    <rdf:RDF>
      <cc:Work rdf:about="">
        <dc:format>image/svg+xml</dc:format>
        <dc:type rdf:resource="http://purl.org/dc/dcmitype/StillImage" />
        <dc:title></dc:title>
      </cc:Work>
    </rdf:RDF>
  </metadata>
  <g inkscape:label="Layer 1" inkscape:groupmode="layer" id="layer1" transform="translate(-22.994008,-23.74653)">
    <g transform="matrix(0.52583136,0,0,-0.52583136,58.54994,268.61318)" inkscape:label="kingfisher02" id="g6273" style="stroke:#333333">
      <path inkscape:connector-curvature="0" d="m 16.4896,303.01075 c 0,0 11.333,16 13.333,24 2,8 0.334,22.666 0.334,22.666 0,0 -22,-30.334 -22.334,-32 -0.333,-1.666 8.667,-14.666 8.667,-14.666" style="fill:#3869af;fill-opacity:1;fill-rule:nonzero;stroke:#282828;stroke-opacity:1" id="path6285" />
      <path inkscape:connector-curvature="0" d="m -31.7179,300.63375 c 0,0 -0.875,-25.5 0.375,-30.375 1.25,-4.875 2.125,-9.5 5.125,-9.625 3,-0.125 6.75,9.5 6.625,15.625 -0.125,6.125 -1.75,16.625 -1.75,16.625 l -10.375,7.75 z" style="fill:#6b625e;fill-opacity:1;fill-rule:nonzero;stroke:#1b1b1b;stroke-opacity:1" id="path6361" />
      <path inkscape:connector-curvature="0" d="m -24.3429,292.25875 c 0,0 0.25,-29.625 1.625,-32.875 1.375,-3.25 4,-5.375 6.75,-5.25 2.75,0.125 4.875,2.125 4.875,5.625 0,3.5 -1.375,27.625 -1.375,27.625 l -11.875,4.875 z" style="fill:#6b625e;fill-opacity:1;fill-rule:nonzero;stroke:#1b1b1b;stroke-opacity:1" id="path6369" />
      <path inkscape:connector-curvature="0" d="m 1.2821,301.75875 c 0,0 1.5,-18.75 1.5,-25.375 0,-6.625 -0.125,-12.375 -2.375,-13 -2.25,-0.625 -5,-2.25 -6,0.875 -1,3.125 -2,37.75 -2,38.375 0,0.625 8.875,-0.875 8.875,-0.875" style="fill:#6b625e;fill-opacity:1;fill-rule:nonzero;stroke:#1b1b1b;stroke-opacity:1" id="path6377" />
      <path inkscape:connector-curvature="0" d="m -3.2179,297.50875 c 0,0 3.125,-34.875 1.5,-38.125 -1.625,-3.25 -4.125,-4.5 -4.75,-4.5 -0.625,0 -5,1.125 -5.625,14 -0.625,12.875 0,26.625 0,26.625 l 8.875,2 z" style="fill:#6b625e;fill-opacity:1;fill-rule:nonzero;stroke:#1b1b1b;stroke-opacity:1" id="path6385" />
      <path inkscape:connector-curvature="0" d="m 6.8241,316.25875 c 0,0 -1.5,-3.167 -1.5,-9 0,-5.833 -9.167,-19.5 -16.667,-22 -7.5,-2.5 -21.167,6.501 -23,15.834 -1.833,9.333 -0.666,26.916 -0.666,26.916 l 41.833,-11.75 z" style="fill:#7c3516;fill-opacity:1;fill-rule:nonzero;stroke:#1d0b00;stroke-opacity:1" id="path6401" />
      <path inkscape:connector-curvature="0" d="m 25.6522,345.50145 c 0,0 -0.667,-6.833 -4,-12 -3.333,-5.167 -16.746,-27.243 -30.746,-24.243 -14,3 -26.126,11.089 -26.249,12.75 -0.667,9 0.166,28 5.166,38.667 0.425,0.905 55.829,-15.174 55.829,-15.174" style="fill:#a03804;fill-opacity:1;fill-rule:nonzero;stroke:#1d0b00;stroke-opacity:1" id="path6409" />
      <path inkscape:connector-curvature="0" d="m 40.4857,371.50195 c 0.825,-5.775 -9.5,-25 -14.333,-30.5 -4.834,-5.5 -13,-13.167 -21.5,-13.5 -8.5,-0.333 -37.835,16.841 -37.496,23.84 0.5,10.292 11.5,27.834 18.167,29.667 6.666,1.833 50.162,1.826 51.495,-0.34 1.334,-2.167 3.334,-6.834 3.667,-9.167" style="fill:#d35e1c;fill-opacity:1;fill-rule:nonzero;stroke:#1d0b00;stroke-opacity:1" id="path6417" />
      <path inkscape:connector-curvature="0" d="m 24.3192,398.33545 c 8.153,-0.569 21.833,-5.167 19.333,-18.667 -2.5,-13.5 -0.999,-5.998 -6.499,-13.498 -5.5,-7.5 -15.334,-13.834 -22.667,-13.666 -7.333,0.166 -22,5.166 -22.167,16.832 -0.166,11.667 -13.5,6.832 -2.667,15.832 10.834,9 27.5,13.667 34.667,13.167" style="fill:#fc7043;fill-opacity:1;fill-rule:nonzero;stroke:#1d0b00;stroke-opacity:1" id="path6425" />
      <path id="path6913" style="fill:#c62809;fill-opacity:1;fill-rule:nonzero;stroke:#333333" d="m -11.930846,311.89534 c -2.375,2 -5.039884,5.97492 -5.914884,5.34992 -0.875,-0.625 -3.345397,-1.11472 -2.049959,-2.03988 0,0 2.674959,-4.21012 1.674959,-7.21012 -1,-3 -6.125,-8.75 -4.5,-12.125 1.625,-3.375 2.333,-2.834 3.208,-2.084 0.875,0.75 1.292,4.334 -0.333,4.459 -1.625,0.125 0.25,2.75 0.5,3.25 0.25,0.5 1.144215,4.43508 3.015215,3.52508" inkscape:connector-curvature="0" sodipodi:nodetypes="cscsssssc" />
      <path inkscape:connector-curvature="0" d="m -22.674,393.67725 c 0,0 4.54,-2.21 5.206,-7.043 0.667,-4.834 5.75,-12.75 7,-10 4.75,13.75 24.294,20.376 24.294,20.376 l -7.333,11.334 -29.167,-14.667 z" style="fill:#3869af;fill-opacity:1;fill-rule:nonzero;stroke:#282828;stroke-opacity:1" id="path6449" />
      <path inkscape:connector-curvature="0" d="m 0.1571,453.67475 c 0,0 -7.667,0.5 -10.667,2.333 -3,1.834 -4.833,3.5 -4.833,3.5 0,0 -1.167,-4.5 -1.167,-6 0,-1.5 -3.5,0.334 -3.5,0.334 0,0 1.334,-5.167 2.834,-6.5 1.5,-1.334 1.166,-2.834 1.166,-2.834 0,0 -6.166,0 -7.333,1.167 -1.167,1.167 -1.5,-3.5 -1.333,-5.333 0.166,-1.834 2.333,-4.167 2.333,-4.167 0,0 -1.834,-0.166 -3.167,0.167 -1.333,0.333 -3.333,1 -3.333,1 0,0 -2.167,-7.167 -0.333,-9.5 1.833,-2.334 1.166,-3.834 1.166,-3.834 l -3,1 c 0,0 -1.833,-11.666 -0.666,-17.666 1.166,-6 8,-11.334 8,-11.334 l 8.833,12.5 25.166,14 -10.166,31.167 z" style="fill:#3869af;fill-opacity:1;fill-rule:nonzero;stroke:#282828;stroke-opacity:1" id="path6457" />
      <path inkscape:connector-curvature="0" d="m 25.8236,445.00825 c 0,0 -6,4.333 -14,9 -8,4.667 -8.5,8 -8.5,8 l -0.333,-1.667 -4.334,4.834 c 0,0 -1.666,-2.334 -1.166,-4.167 0.5,-1.833 0.666,-3 0.666,-3 0,0 -1.666,2.5 -3.166,4 -1.5,1.5 -4,2.333 -4,2.333 0,0 -1.167,-2.5 -0.5,-5.833 0.666,-3.333 3.833,-8.333 3.833,-8.333 0,0 -3.167,0.333 -4.5,0.833 -1.333,0.5 -4,0.833 -4,0.833 0,0 1.167,-5.666 4.5,-8.666 3.333,-3 4.833,-2.167 4.833,-2.167 0,0 -4.166,-1 -5.833,-1 l -5.5,0 c 0,0 -0.833,-3.667 4.167,-9 5,-5.333 11,-7.167 11,-7.167 l 17.666,4.167 9.167,17 z" style="fill:#4799d6;fill-opacity:1;fill-rule:nonzero;stroke:#282828;stroke-opacity:1" id="path6465" />
      <path inkscape:connector-curvature="0" d="m 43.8236,432.67475 c 0.333,1.667 -1.833,6.5 -6.5,9.5 -4.667,3 -14.167,9.167 -14.167,9.167 0,0 1,-2.667 0,-3.334 -1,-0.666 -7.166,0.667 -7.166,0.667 0,0 0,-4.333 -0.5,-5 -0.5,-0.667 -5.667,-3.5 -5.667,-3.5 0,0 3.167,-2.333 3.333,-4 0.167,-1.667 0.5,-5.333 0.5,-5.333 l 8,-6.334 22.167,8.167 z" style="fill:#52b2f7;fill-opacity:1;fill-rule:nonzero;stroke:#282828;stroke-opacity:1" id="path6473" />
      <path inkscape:connector-curvature="0" d="m 31.3236,419.50875 c 0,0 -11.333,1.333 -18,0.5 -6.667,-0.833 -24,-8.833 -24.333,-10 -0.334,-1.167 -15.417,-18.542 -15.417,-18.542 0,0 9.583,2.208 15.083,3.375 5.5,1.167 11.169,6.002 11.169,6.002 l -7.333,-9.833 c 0,0 12.998,2.998 18.831,5.998 5.833,3 19.5,19 20,22.5" style="fill:#4799d6;fill-opacity:1;fill-rule:nonzero;stroke:#282828;stroke-opacity:1" id="path6481" />
      <path inkscape:connector-curvature="0" d="m 49.1566,418.50925 c 0,0 -10,-5 -11.5,-11.667 -1.5,-6.666 -1.5,-12.5 -1.5,-12.5 0,0 -5.667,4 -10.167,2.834 -4.5,-1.167 -12.833,-5 -12.833,-5 0,0 -7.833,3.5 -0.167,11.666 7.667,8.167 9.334,9.834 15.5,12.334 6.167,2.5 20.667,2.333 20.667,2.333" style="fill:#f9f7ef;fill-opacity:1;fill-rule:nonzero;stroke:#333333" id="path6489" />
      <path inkscape:connector-curvature="0" d="m -3.528,415.54195 c 0,0 -10.148,-5.22 -14.483,-10.757 -4.336,-5.536 -9.54,-14.318 -9.54,-14.318 0,0 10.473,10.397 17.146,12.537 6.673,2.141 11.006,4.829 12.529,6.467 1.522,1.637 -1.027,7.979 -5.652,6.071" style="fill:#f9f7ef;fill-opacity:1;fill-rule:nonzero;stroke:#333333" id="path6497" />
      <path inkscape:connector-curvature="0" d="m 4.7396,434.88225 c -3.402,-1.701 -6.166,-7.666 -2.833,-10.833 3.333,-3.167 5,-3.167 8.666,-1.667 3.667,1.5 9.167,7.834 4.167,11.167 -5,3.333 -8.333,2.166 -10,1.333" style="fill:#f9f7ef;fill-opacity:1;fill-rule:nonzero;stroke:#333333" id="path6521" />
      <path inkscape:connector-curvature="0" d="m 20.1566,419.00725 c 0,0 -9,-0.833 -15,0.667 -6,1.5 -6.833,5.666 -8.333,5.666 -1.5,0 -11.167,-3.833 -14,-6.833 -2.834,-3 -3.834,-11.5 2.833,-10.667 6.667,0.834 11.667,6.334 15.5,7.667 3.833,1.333 17.333,3 19,3.5" style="fill:#fc7043;fill-opacity:1;fill-rule:nonzero;stroke:#1d0b00;stroke-opacity:1" id="path6505" />
      <path inkscape:connector-curvature="0" d="m 16.8231,431.34075 c 0,0 5.5,-5.833 7.333,-5.833 1.834,0 10.751,0.584 10.918,2.584 0.166,2 -0.751,4.749 -3.751,5.916 -3,1.166 -12.833,-1.834 -14.5,-2.667" style="fill:#fc7043;fill-opacity:1;fill-rule:nonzero;stroke:#1d0b00;stroke-opacity:1" id="path6513" />
      <path inkscape:connector-curvature="0" d="m 16.8231,431.34075 c 0,0 -0.5,-5.833 -4.333,-7.999 -3.834,-2.167 -7.334,-1.834 -9.334,-0.168 -2,1.667 -3.166,3.667 -3.166,3.667 l -3.167,-1.5 c 0,0 2.377,-4.943 6,-6.833 3.833,-2 9.5,-2.167 13.833,-1.167 4.334,1 6.167,4.667 7.334,5.5 1.166,0.833 4.5,2.833 4.5,2.833 0,0 -3.833,-0.166 -6.5,1 -2.667,1.167 -5.167,4.667 -5.167,4.667" style="fill:#3e5186;fill-opacity:1;fill-rule:nonzero;stroke:#282828;stroke-opacity:1" id="path6529" />
      <path inkscape:connector-curvature="0" d="m 34.8236,431.00825 c 0,0 9.833,0.167 9.333,-1 -0.5,-1.167 -10,-3.5 -10,-3.5 0,0 1.167,1.5 1.167,2.167 0,0.666 -0.5,2.333 -0.5,2.333" style="fill:#465172;fill-opacity:1;fill-rule:nonzero;stroke:#333333" id="path6537" />
      <path inkscape:connector-curvature="0" d="m 21.9901,419.17475 c 1.886,-1.178 15.833,-2.667 27.333,-1.5 11.5,1.167 33.334,4.834 35,6.667 1.667,1.833 -13,1.166 -26.5,0.833 -13.5,-0.333 -30.833,-1.332 -32.333,-1.833 -1.5,-0.501 -4.833,-3.334 -3.5,-4.167" style="fill:#313742;fill-opacity:1;fill-rule:nonzero;stroke:#000000;stroke-opacity:1" id="path6545" />
      <path inkscape:connector-curvature="0" d="m 21.9901,420.34175 c 0,0 5.333,5.5 9.333,6.167 4,0.666 10.667,2.499 10.5,3.166 -0.166,0.667 -7,1.334 -7,1.334 0,0 4.334,0.5 4.334,1.833 0,1.333 -0.834,4.5 -0.834,4.5 0,0 2.667,-3.833 6.167,-4.333 3.5,-0.5 17.167,1.499 24.000002,1.666 6.833,0.167 20.667,1.167 20.833,0.167 0.167,-1 -23.166,-4.5 -36.833002,-7.833 -13.667,-3.334 -28.5,-5.834 -30.5,-6.667" style="fill:#313742;fill-opacity:1;fill-rule:nonzero;stroke:#000000;stroke-opacity:1" id="path6553" />
      <path inkscape:connector-curvature="0" d="m 6.80519,435.12081 c -2.121,-1.414 -4.633,-5.269 -2.126,-8.459 2.507,-3.191 5.501,-4.166 8.626,-1.916 1.82,1.311 3.875,4.625 2.75,7.375 -1.567,3.832 -7.882,3.912 -9.25,3" style="fill:#000000;fill-opacity:1;fill-rule:nonzero;stroke:none" id="path6569" />
      <path inkscape:connector-curvature="0" d="m 6.55469,430.70431 c 0,0 -0.875,1.625 1,2.5 1.875,0.875 3,0.125 3,0.125 0,0 -2,-0.5 -2.625,-1.25 -0.625,-0.75 -1.375,-1.375 -1.375,-1.375" style="fill:#ffffff;fill-opacity:1;fill-rule:nonzero;stroke:none" id="path6577" />
      <path inkscape:connector-curvature="0" d="m -38.5929,295.13375 c 0,-2.963 9.5,16.75 12.125,23.125 2.625,6.375 8.465,21.105 9.25,29.625 0.875,9.5 -9,-2.875 -15.625,-5.375 -6.625,-2.5 -11.875,-18.125 -11.25,-23 0.625,-4.875 1.125,-11.875 2.625,-14.375 1.5,-2.5 2.875,-8.625 2.875,-10" style="fill:#3869af;fill-opacity:1;fill-rule:nonzero;stroke:#282828;stroke-width:1.00032067;stroke-miterlimit:4;stroke-opacity:1;stroke-dasharray:none" id="path6609" />
      <path inkscape:connector-curvature="0" d="m -43.3429,314.88375 c 0,0 6.5,6.25 11.875,13 5.375,6.75 15.375,21 15.875,25.75 0.5,4.75 2.25,19.625 -4.375,19.75 -6.625,0.125 -15.5,-7.375 -19.125,-13.75 -3.625,-6.375 -6.75,-13.875 -6.625,-23.625 0.125,-9.75 0.125,-19.125 2.375,-21.125" style="fill:#4799d6;fill-opacity:1;fill-rule:nonzero;stroke:#282828;stroke-opacity:1" id="path6617" />
      <path inkscape:connector-curvature="0" d="m -29.8429,361.50875 c 8.358,7.885 17.375,8.125 15.375,18.25 -2,10.125 -6.375,16.75 -12.875,13.25 -6.5,-3.5 -13.375,-11.75 -16.125,-25.25 -2.75,-13.5 -4,-27.125 -2.875,-28.5 1.125,-1.375 9.875,16 16.5,22.25" style="fill:#52b2f7;fill-opacity:1;fill-rule:nonzero;stroke:#282828;stroke-opacity:1" id="path6625" />
      <path style="fill:none;stroke:#333333;stroke-width:1;stroke-linecap:butt;stroke-linejoin:miter;stroke-miterlimit:4;stroke-opacity:1;stroke-dasharray:none" d="m -11.72073,311.74526 c -2.375,2 -5.25,6.125 -6.125,5.5 -0.875,-0.625 -2.625,-1.625 -2.125,-2.25 0,0 2.75,-4 1.75,-7 -1,-3 -6.125,-8.75 -4.5,-12.125 1.625,-3.375 2.333,-2.834 3.208,-2.084 0.875,0.75 1.292,4.334 -0.333,4.459 -1.625,0.125 0.25,2.75 0.5,3.25 0.25,0.5 0.904083,4.61518 2.775083,3.70518" id="path6917" inkscape:connector-curvature="0" sodipodi:nodetypes="cscsssssc" />
      <path sodipodi:nodetypes="cscsssssc" inkscape:connector-curvature="0" d="m 11.782214,315.79749 c -2.3750002,2 -5.0398842,5.97492 -5.9148842,5.34992 -0.875,-0.625 -3.3453969,-1.11472 -2.0499589,-2.03988 0,0 2.6749589,-4.21012 1.6749589,-7.21012 -1,-3 -6.12499996,-8.75 -4.49999996,-12.125 1.62500006,-3.375 2.33300006,-2.834 3.20799996,-2.084 0.875,0.75 1.292,4.334 -0.3329999,4.459 -1.625,0.125 0.2499999,2.75 0.4999999,3.25 0.25,0.5 1.144215,4.43508 3.015215,3.52508" style="fill:#c62809;fill-opacity:1;fill-rule:nonzero;stroke:#333333" id="path7259" />
      <path sodipodi:nodetypes="cscsssssc" inkscape:connector-curvature="0" id="path7261" d="m 11.99233,315.64741 c -2.3750002,2 -5.2500002,6.125 -6.1250002,5.5 -0.875,-0.625 -2.6249999,-1.625 -2.1249999,-2.25 0,0 2.7499999,-4 1.7499999,-7 -1,-3 -6.12499996,-8.75 -4.49999996,-12.125 1.62500006,-3.375 2.33300006,-2.834 3.20799996,-2.084 0.875,0.75 1.292,4.334 -0.3329999,4.459 -1.625,0.125 0.2499999,2.75 0.4999999,3.25 0.25,0.5 0.904083,4.61518 2.775083,3.70518" style="fill:none;stroke:#333333;stroke-width:1;stroke-linecap:butt;stroke-linejoin:miter;stroke-miterlimit:4;stroke-opacity:1;stroke-dasharray:none" />
      <path style="fill:#784421;fill-opacity:1;stroke:#341e0e;stroke-width:1.06498027;stroke-linecap:butt;stroke-linejoin:miter;stroke-miterlimit:4;stroke-opacity:1;stroke-dasharray:none" d="m -67.086017,302.51369 15.185114,0.21344 c 0,0 3.73558,2.20739 6.45236,1.86779 2.71679,-0.33959 5.77317,-1.86779 5.77317,-1.86779 0,0 12.90474,0.3396 14.26313,0.6792 1.3584,0.3396 12.22554,0.3396 12.22554,0.3396 l 30.56385,5.77317 22.41349,7.81076 6.96176,14.43293 3.90538,-0.3396 -6.11276,-12.39534 23.09267,9.84835 2.37718,-1.35839 c 0,0 -16.3007,-10.35775 -24.45107,-12.73494 -8.15035,-2.37719 -9.33896,-4.07518 -12.39534,-5.43357 -3.05638,-1.35839 -11.20673,-4.92417 -19.35709,-7.30136 -8.1503604,-2.37719 -28.69606,-4.58458 -33.11084,-4.92418 -4.41478,-0.3396 -18.16851,-4.92417 -21.73429,-6.28257 -6.96176,-3.05638 -13.982603,-6.95223 -26.027678,-7.345" id="path6919" inkscape:connector-curvature="0" sodipodi:nodetypes="ccscsccccccccsssscc" />
      <path style="fill:#c62809;fill-opacity:1;fill-rule:nonzero;stroke:#333333" d="m -16.450581,305.14041 c 4.625,-2.25 2.604851,-11.27015 3.979851,-11.77015 1.375,-0.5 1.625,1.25 1.625,3 0,1.75 0.375,5.875 -0.5,7.625 -0.875,1.75 0,0.75 0,0.75 0,0 1,-3.75 1,-5.875 0,-2.125 -1.25,-7.625 0,-7.625 1.25,0 2.667,4.208 2.583,7.125 -0.065,2.297 -0.833,6.25 -0.833,6.25 0,0 1.375,-9.375 0.75,-10.625 -0.625,-1.25 -0.125,-1.875 0.75,-0.75 0.875,1.125 2.25,9 0.875,12.5 -1.375,3.5 -3.3951488,4.06003 -5.770149,6.06003" id="path7254" inkscape:connector-curvature="0" sodipodi:nodetypes="cssscssccsssc" />
      <path style="fill:none;stroke:#333333;stroke-width:1;stroke-linecap:butt;stroke-linejoin:miter;stroke-miterlimit:4;stroke-opacity:1;stroke-dasharray:none" d="m -16.690714,305.26048 c 4.625,-2.25 2.844984,-11.39022 4.219984,-11.89022 1.375,-0.5 1.625,1.25 1.625,3 0,1.75 0.375,5.875 -0.5,7.625 -0.875,1.75 0,0.75 0,0.75 0,0 1,-3.75 1,-5.875 0,-2.125 -1.25,-7.625 0,-7.625 1.25,0 2.667,4.208 2.583,7.125 -0.065,2.297 -0.833,6.25 -0.833,6.25 0,0 1.375,-9.375 0.75,-10.625 -0.625,-1.25 -0.125,-1.875 0.75,-0.75 0.875,1.125 2.25,9 0.875,12.5 -1.375,3.5 -3.3050992,4.15008 -5.680099,6.15008" id="path7250" inkscape:connector-curvature="0" sodipodi:nodetypes="cssscssccsssc" />
      <path sodipodi:nodetypes="cssscssccsssc" inkscape:connector-curvature="0" id="path7263" d="m 7.2624788,309.04256 c 4.6250002,-2.25 2.604851,-11.27015 3.9798512,-11.77015 1.375,-0.5 1.625,1.25 1.625,3 0,1.75 0.375,5.875 -0.5,7.625 -0.875,1.75 0,0.75 0,0.75 0,0 1,-3.75 1,-5.875 0,-2.125 -1.25,-7.625 0,-7.625 1.25,0 2.667,4.208 2.583,7.125 -0.065,2.297 -0.833,6.25 -0.833,6.25 0,0 1.375,-9.375 0.75,-10.625 -0.625,-1.25 -0.125,-1.875 0.75,-0.75 0.875,1.125 2.25,9 0.875,12.5 -1.375,3.5 -3.395149,4.06003 -5.770149,6.06003" style="fill:#c62809;fill-opacity:1;fill-rule:nonzero;stroke:#333333" />
      <path sodipodi:nodetypes="cssscssccsssc" inkscape:connector-curvature="0" id="path7265" d="m 7.0223458,309.16263 c 4.6250002,-2.25 2.844984,-11.39022 4.2199842,-11.89022 1.375,-0.5 1.625,1.25 1.625,3 0,1.75 0.375,5.875 -0.5,7.625 -0.875,1.75 0,0.75 0,0.75 0,0 1,-3.75 1,-5.875 0,-2.125 -1.25,-7.625 0,-7.625 1.25,0 2.667,4.208 2.583,7.125 -0.065,2.297 -0.833,6.25 -0.833,6.25 0,0 1.375,-9.375 0.75,-10.625 -0.625,-1.25 -0.125,-1.875 0.75,-0.75 0.875,1.125 2.25,9 0.875,12.5 -1.375,3.5 -3.305099,4.15008 -5.680099,6.15008" style="fill:none;stroke:#333333;stroke-width:1;stroke-linecap:butt;stroke-linejoin:miter;stroke-miterlimit:4;stroke-opacity:1;stroke-dasharray:none" />
    </g>
  </g>
</svg>