<?xml version="1.0" encoding="utf-8"?>
<!-- Generator: Adobe Illustrator 22.1.0, SVG Export Plug-In . SVG Version: 6.00 Build 0)  -->
<svg version="1.1" id="vote" xmlns="http://www.w3.org/2000/svg" xmlns:xlink="http://www.w3.org/1999/xlink" x="0px" y="0px" width="200px" height="200px" viewBox="0 0 200 200" style="enable-background:new 0 0 200 200;" xml:space="preserve">
<g>
	<path fill="#231F20" d="M175.5,181.8c-1.1-2-4.4-2.9-4.9-5.2c-0.4-2,1.9-4.8,1.7-6.9c-0.2-1.9-2-2.2-3-3c-1.2-1-1.3-2.6-3.6-2.7
		c-2.3,0-1.9,1.2-3.6,1.9c-1.7,0.7-2.3,1.1-6.7,0.6c-4.4-0.4-9.2-2.1-17.4-4.2c-6.1-1.6-17.5-4-27-6.8c6-2.6,11.4-5.3,17.2-7.3
		c8.1-2.9,18.3-4.5,24.7-5.3c7.7-0.9,12.7-0.4,15.3-0.9c2.6-0.5,3.9-2.3,4.2-4.6c0.3-2.3-0.9-5.4-2-6.4c-1.3-1-3.5-1.2-3.7-2.4
		c-0.2-1.1,0.8-3.1,0.7-4.9c-0.1-1.8-2.3-3.2-3.8-3.3c-1.5-0.2-2.7,1-3.8,1.1c-1,0.2-2.3-0.7-3.8-0.4c-1.5,0.4-3.3,2-4.3,3.8
		c-1,1.8-1.7,4.6-3.6,6c-1.9,1.5-7.5,2.5-13.9,4.8c-6.3,2.3-16.6,7.2-25.3,10.4c-2.8,1.1-7.3,2.6-12.2,4.2
		c-8.5-3.4-17.9-7.4-25.6-10.9c-10.5-4.8-20.6-9.1-22.4-10.3c-1.2-0.8-1.8-1.7-2.3-2.4c-0.5-0.7-1-1.6-1-2.3c0-0.8,0.3-0.7,0.3-1.5
		c-0.1-0.8-1.6-2.1-3.6-2.2c-2-0.1-4.2,2.2-4.9,2.8c-0.7,0.6-1.3,0.6-2.3,1.8c-1,1.2-0.8,3.2-1.3,4c-0.5,0.8-1.6,0-2.7,0.8
		c-1.1,0.8-1.2,3.4-1.4,5.5c-0.1,2.2-0.4,5.7,0.4,7.2c0.8,1.5,4.1,2,6.7,2c2.6,0,8.2-0.2,11.7,0.3c3.5,0.5,12.4,2.9,16.4,4.3
		c2.8,1,9.1,3.4,15.9,6.1c-4.8,1.5-9.1,2.9-11.5,3.6c-8.8,2.7-23.9,7.9-26.9,8.7c-3.1,0.9-5.4-0.5-7.3-1.7c-1.8-1.2-3.1-2.1-4.5-2.1
		c-1.4,0-3.2,1.5-3.8,2.4c0,0-1.4,0.1-1.9,0.8c-0.5,0.6-1,4.3-0.6,6.2c0.3,1.9,2.7,2.2,3.3,3.7c0.6,1.4-0.1,4.8,0.3,7.3
		c0.4,2.5,1.4,3.8,2.9,4.5c1.5,0.7,3.5,1,4.5,1.1c1,0.1,3.1,0.9,5.4-0.6c2.3-1.4,7.9-7.4,9.1-9c1.2-1.6,1.5-2.7,2.4-3.5
		c0.9-0.8,10.5-4.3,16.5-6.4c4.1-1.4,16.7-5.9,26.7-9.4c0.2,0.1,0.5,0.2,0.7,0.3c9.7,3.8,23.3,8.8,30.1,11.3
		c6.7,2.5,16.2,4.5,23.6,7.6c7.4,3.1,14.8,9.3,19.1,10c2.9,0.4,4.5-0.7,5.9-2.5C176,186.5,176.6,183.7,175.5,181.8z"/>
	<path fill="#231F20" d="M52.2,82.4C52.2,82.4,52.2,82.4,52.2,82.4c0.1,0.2,0.2,0.4,0.4,0.5c1.3,0.9,4.7-1.7,7.6-5.9
		c1.3-1.8,2.2-3.6,2.8-5.2c1.9,3.8,1.5,6.4-2.6,9.2c-1,0.7-2.9,1.2-4.6,1.9c-0.3,0.1-0.6,0.2-0.9,0.3c-0.9,0.4-1.6,0.8-2.3,1.2
		l0-0.1c-0.6,0.4-1.2,0.9-1.7,1.4l0,0v0c-0.1,0.1-0.2,0.2-0.2,0.2c-1.3,1.8-0.3,3.8,0.1,5.7c0.1,0.5,0.3,1.4,0.4,2.3
		c0.4,1.8,0.8,3.5,1,5.2c0.1,0.9-0.1,1.9-0.2,2.8c-0.4,3.5-1.7,7.6-0.3,10.9c0.5,1.3,1.2,2.9,2.2,3.8c4.7,4.3,10.7,5.1,16.4,4.1
		c0.5-0.1,3.9-1,4.3-0.8c0,0,0.1,0,0.1,0.1c4.5,3.8-3.5,12,0.7,13.3c2.1,0.6,0.9-0.6,2.8,3.3c0.3,0.6,0.9,1.4,1.5,1.6
		c1.8,0.8,1.1-0.9,2-0.5c0.9,0.4-1.8,0.6,1.7,2.6c0.8,0.4,3.4,1.4,4.2,0.7c0.6-0.6,1.3-3.9,2.1-0.1c0.4,1.7,2.8,1.8,4.2,1.7
		c0.5,0,1.4-0.5,1.9-0.6c0.8-0.2,1,0.1,1-0.4c0.1-0.7,0.1-0.6,0.2-1.1c0.1-0.4,1.6-0.3,1.7,0c0.1,0.5,0,0.5,0.2,0.9
		c0.5,1.1,1.5,0.3,5.3,0.3c2.1,0,0.2-3.7,3.3-0.9c0.5,0.5,1.6,0.8,2.3,0.6c3.2-1.1,1-3.3,1.4-4c0.3-0.7,0.9-0.3,1.2,0
		c0.9,1.4,0.4,2.1,1.6,1.7c0.2-0.1,0.4-0.2,0.6-0.3c0.8-0.5,1.9-1.1,2.2-2.2c0.2-0.7-0.5-0.9,2.4-1.3c0.6-0.1,1.3-0.7,1.7-1.1
		c1.4-1.4,1.3-2.5,1-4.5c-0.9-6.5-1.1-0.4-0.2-6.8c0.1-0.3,0.2-0.5,0.5-0.6c1.7-0.4,5,1.2,6.6,2.1c3.5,1.7,10.6,0.6,12.4-3.8
		c0.5-1.1,0.3-2.5,0.4-3.8c0.1-1.2,0.4-2.4,0.8-3.5c0.3-0.8,1-1.3,1.5-2c1.8-2.7,3.8-5.5,4.2-9c0.2-1.6-0.7-3.2-0.9-4.8
		c0-0.4-0.1-0.7-0.1-1.1l0,0.1c-1-0.9-0.3-3.7,0-4.8c0.5-1.8,1.4-3.9,0.1-5.7c-0.5-0.7-1.4-1.2-2.1-1.8c-1.6-0.5-3.4-0.7-4.8-2.3
		c-2.1-2.4-2.3-6.3-0.2-9c0.1,0.5,0.2,1.2,0.3,2c0,0.4,0,0.8,0,1.2c0.4,4.3,2.6,7.7,4.9,7.5c0.3,0,0.6-0.1,0.9-0.3l2.1-10l0.2,0
		c0,0,0-0.1,0-0.1c0.7-2.5,1.4-5.1,1.3-7.6c-0.5-12.3-2.1-21.5-8.2-31.9c-1.8-3-3.1-6.3-5.4-8.9c-3.1-3.6-7.6-7.8-11.5-10.3
		c-1.6-1-3.4-1.6-5.1-2.2c-4.4-1.6-9.2-2.8-14.2-3.1c-7-0.4-13.9-0.1-20.7,1.7c-6.4,1.7-12.3,5.5-17.8,9.4c-2.7,1.9-5.7,3.2-8.1,5.8
		C51.9,34,48.9,44,47.5,54.8c-1.1,8.5,1.8,17,3.9,25.6C51.8,81.2,51.7,81.9,52.2,82.4z M107.4,94.6c0-1.3,0.3-3,0.7-3.9
		c0.4-0.9,0.9-2.2,1.3-2.9c0.4-0.7,1.2-1.7,1.8-2.2c0.7-0.5,2-1.1,2.9-1.4c1-0.3,3.4-0.6,5.4-0.8h0c2-0.2,4.9-0.2,6.5,0
		c1.6,0.2,3.8,0.7,4.9,1c1.1,0.4,2.7,1.3,3.6,2c0.9,0.8,2.1,2.7,2.8,4.4c0.7,1.7,1.2,4,1.2,5.3c0,1.2-0.2,3-0.6,4
		c-0.3,1-0.9,2.2-1.4,2.7c-0.5,0.5-1.2,1.2-1.7,1.4c-0.5,0.3-1.8,0.9-2.9,1.5c-1.1,0.6-2.8,1.1-3.8,1.2c-1,0.1-2.8,0.1-4,0
		c-1.3-0.1-3.2-0.5-4.3-0.8c-1.1-0.4-3.3-1.4-5-2.4c-1.6-1-3.8-2.5-4.8-3.4c-1-0.9-2-2-2.3-2.4C107.6,97.2,107.4,95.8,107.4,94.6z
		 M99.8,105.3c1.3,1.1,5.2,12.4,4.7,14.5c-0.3,1.3-1.7,2.4-2.8,3.2c0,0.1,0,0.1-0.1,0c-0.3,0-0.5-0.7-0.5-0.9
		c-1.1-4-1.6-8.3-1.5-12.9C99.6,107.8,99.3,106.5,99.8,105.3z M96.9,105.3c0.4,1.2,0.2,2.5,0.2,3.8c0.1,4.6-0.4,8.9-1.5,12.9
		c-0.1,0.2-0.2,0.9-0.5,0.9c-0.1,0.1-0.1,0.1-0.1,0c-1-0.7-2.4-1.8-2.8-3.2C91.8,117.7,95.6,106.4,96.9,105.3z M70.6,84.4
		c1.2-0.3,2.9-0.6,3.9-0.7c1-0.1,2.4-0.1,3.1,0.1c0.8,0.2,2,0.5,2.7,0.8c0.7,0.3,2.1,0.8,3,1.1c1,0.3,2.1,0.9,2.6,1.3
		c0.5,0.4,1.2,1.3,1.7,1.9c0.5,0.7,1.2,1.7,1.6,2.4c0.3,0.7,0.8,1.7,1.1,2.4c0.3,0.7,0.5,1.7,0.5,2.4c0,0.7-0.4,1.8-0.8,2.6
		c-0.5,0.8-1.4,1.8-2.1,2.3c-0.7,0.5-2.3,1.4-3.6,2c-1.3,0.6-3.5,1.8-4.9,2.5c-1.4,0.8-3.5,1.7-4.7,2c-1.2,0.4-3.1,0.7-4.4,0.8
		c-1.3,0.1-3.2-0.1-4.3-0.4c-1.1-0.3-2.7-1.4-3.6-2.4c-0.9-1-1.9-2.5-2.3-3.4c-0.4-0.9-0.9-2.3-1-3.3c-0.1-1,0-2.5,0.3-3.4
		c0.3-0.9,0.8-2.2,1.1-2.9c0.3-0.7,1.3-2,2.3-3c1-1,2.7-2.5,3.8-3.2C67.6,85.5,69.4,84.7,70.6,84.4z"/>
</g>
</svg>
